<?xml version="1.0" encoding="utf-8"?>
<!-- Generator: Adobe Illustrator 25.3.1, SVG Export Plug-In . SVG Version: 6.00 Build 0)  -->
<svg version="1.1" id="Layer_1" xmlns="http://www.w3.org/2000/svg" xmlns:xlink="http://www.w3.org/1999/xlink" x="0px" y="0px"
	 viewBox="0 0 2000 2000" style="enable-background:new 0 0 2000 2000;" xml:space="preserve">
<style type="text/css">
	.st0{fill:#FFFF00;}
	.st1{opacity:0.1;clip-path:url(#SVGID_2_);}
	.st2{fill:url(#SVGID_3_);}
	.st3{fill:url(#SVGID_4_);}
	.st4{fill:url(#SVGID_5_);}
	.st5{fill:url(#SVGID_6_);}
	.st6{fill:url(#SVGID_7_);}
	.st7{fill:url(#SVGID_8_);}
	.st8{fill:url(#SVGID_9_);}
	.st9{fill:url(#SVGID_10_);}
	.st10{fill:url(#SVGID_11_);}
	.st11{fill:url(#SVGID_12_);}
	.st12{display:none;fill:url(#SVGID_13_);}
	.st13{fill:url(#SVGID_14_);}
	.st14{fill:url(#SVGID_15_);}
	.st15{fill:url(#SVGID_16_);}
	.st16{fill:url(#SVGID_17_);}
	.st17{fill:url(#SVGID_18_);}
	.st18{fill:#FFFFFF;}
	.st19{font-family:'Poppins-Bold';}
	.st20{font-size:470px;}
	.st21{letter-spacing:-18;}
</style>
<rect class="st0" width="2000" height="2000"/>
<g>
	<defs>
		<rect id="SVGID_1_" x="-0.58" y="-1.55" width="2000" height="2000"/>
	</defs>
	<clipPath id="SVGID_2_">
		<use xlink:href="#SVGID_1_"  style="overflow:visible;"/>
	</clipPath>
	<g class="st1">
		<path d="M1942.25,1248c-1.38-1-2.62-2.56-4.15-2.92c-23.52-5.6-38.16-20-43.81-43.53c-0.12-0.52-0.64-0.94-1.3-1.86
			c-20.28,5.28-40.11,4.4-58.15-7.99c-18.04-12.39-28.04-29.9-28.13-51.56c-0.08-20.28,5.19-39.74,22.44-52.61
			c16.5-12.31,35.81-16.05,56.8-12.57c0.62-3.98,1.32-7.32,1.64-10.7c3.98-42.59,27.43-70.24,66.79-84.3
			c42.04-15.01,79.57-5.45,112.03,24.53c8.83,8.15,15.18,18.28,19.85,29.47c4.25,10.19,2.74,9.43,13.63,9.77
			c25.75,0.81,47.64,10.07,63.86,30.72c21.1,26.86,17.1,67.02-9.87,89.52c-5.75,4.8-12.4,8.59-18.9,12.39
			c-2.68,1.56-4.5,3.02-5.48,6.15c-8.99,28.81-30.37,42.82-58.62,48.24c-21.76,4.18-42.22,0.28-61.39-10.74
			c-0.73-0.42-1.59-0.61-1.83-0.7c-6.2,5.74-11.59,11.97-18.16,16.46c-5.86,4.01-13.05,6.06-19.6,9.1c-1.74,0.81-3.28,2.07-4.9,3.12
			C1957.43,1248,1949.84,1248,1942.25,1248z M2005.15,1212.23c2.06,1.16,3.54,1.95,4.97,2.82c19.81,12.1,41.09,16.26,63.71,10.59
			c24.84-6.22,44.43-18.91,51.46-45.45c1.09-4.11,3.78-5.93,7.22-7.95c7.23-4.25,14.8-8.44,20.83-14.14
			c22.14-20.92,26.45-50.87,10.01-76.16c-15.81-24.32-39.84-33.74-68.07-33.98c-2.8-0.02-5.61,0-8.16,0
			c-15.27-47.22-57.96-74.07-103.12-69.43c-60.21,6.18-91.89,41.12-93.26,102.55c-2.23-0.47-3.92-0.79-5.59-1.17
			c-25.5-5.92-53.44,4.39-65.27,25.64c-17.36,31.18-9.06,69.53,24.83,86.77c14.85,7.56,30.32,7.17,45.98,2.99
			c2.35-0.63,4.68-1.31,7.46-2.09c1.96,25.15,15.55,40.9,38.01,46.82C1964.92,1247.64,1989.07,1239.18,2005.15,1212.23z"/>
		<path d="M765.3,986.11c-45.6-0.57-78.08-13.93-105.18-39.61c-19.52-18.5-29.64-41.93-32.96-68.61
			c-4.22-33.9,5.36-63.84,24.77-91.2c9.32-13.13,21.47-23.06,35.89-29.92c16.9-8.04,34.72-13.43,53.29-16.16
			c6.05-0.89,12.07-2.25,18.15-2.62c29.41-1.79,54.39,9.1,75.45,28.68c29.89,27.79,45.06,62.35,44.02,103.44
			c-0.53,20.88-7.38,40.01-18.29,57.6c-13.69,22.09-32.01,39.1-56.29,49.22C789.14,983.18,773.64,986.67,765.3,986.11z
			 M745.71,836.94c-0.62-3.49-1.24-6.99-1.86-10.48c-1.81-3.22-3.62-6.43-5.44-9.65c-0.5,0.31-1,0.62-1.51,0.93
			c2.89,2.56,0.84,8.24,6.98,8.74c-2.8,4.11-0.29,7.19,1.99,10.32c0.72,2.78,1.43,5.55,2.15,8.33c0.71-0.29,1.41-0.58,2.11-0.87
			C748.66,841.81,747.17,839.39,745.71,836.94z M687.15,930.53c-2.56-1.97-5.11-3.94-7.67-5.91c1.79,3.22,3.35,6.94,7.93,5.67
			c1.89,6.11,4.65,8.69,11.59,10.27C694.71,936.89,690.96,933.68,687.15,930.53z M764.24,853.69c-7.95,0.19-15.41,0.53-22.87,0.5
			c-4.93-0.02-9.86-0.44-14.77-0.91c-4.76-0.45-7.38,1.45-9.25,5.94c-2.23,5.34-5.49,10.24-8.24,15.37
			c-4.35,8.14-8.65,16.31-12.86,24.27c4.94,6.64,9.5,12.61,13.88,18.71c3.9,5.43,7.48,11.08,11.41,16.49
			c2.01,2.77,4.07,5.58,8.31,5.38c14.53-0.66,29.07-1,43.59-1.78c1.93-0.1,4.53-1.54,5.51-3.16c4.2-6.93,7.79-14.23,11.84-21.26
			c5.14-8.91,4.59-16.75-3.45-23.76c-1.7-1.48-2.78-3.72-4.02-5.68C776.8,873.57,770.32,863.29,764.24,853.69z M850.41,843.21
			c-7.67-10.14-14.85-20.41-22.9-29.94c-4.19-4.96-8.29-9.51-8.19-16.44c-13.65,3-26.7,5.87-39.74,8.74
			c-3.77,0.83-6.33,3.11-7.06,6.87c-2.04,10.55-4.04,21.11-5.7,31.72c-0.33,2.1,0.44,4.69,1.49,6.63
			c8.71,16.15,18.4,31.67,29.82,45.11c13.42-0.57,26.12-1.11,39.36-1.68C841.87,876.93,846.14,860.08,850.41,843.21z M696.57,810.3
			c-11.33-2.6-22.7-1.36-33.97-1.14c-1.64,0.03-3.78,2.51-4.74,4.35c-5.66,10.79-10.94,21.79-16.56,32.6
			c-1.77,3.41-2.02,6.44-0.06,9.77c6.78,11.53,13.38,23.18,20.36,34.59c0.98,1.59,3.61,2.74,5.63,3.03
			c8.01,1.15,16.08,1.87,25.1,2.86c6.6-12.22,13.57-24.93,20.28-37.79c0.77-1.47,0.52-3.92-0.1-5.6
			C707.34,838.79,701.97,824.69,696.57,810.3z M724.65,756.1c2.85,6.91,5.63,13.87,8.65,20.72c0.5,1.13,1.95,1.94,3.1,2.68
			c10.25,6.62,20.65,13.03,30.75,19.88c3.65,2.47,6.89,3.57,11.31,2.38c10.92-2.95,21.97-5.44,32.96-8.15
			c2.73-0.67,5.43-1.43,8.42-2.22c0.33-5.89,0.63-11.21,0.96-17.08c9.18-0.11,15.04,7.81,23.53,9.71
			c-4.75-6.01-9.96-11.35-15.38-16.47c-21.9-20.68-48.39-26.31-77.44-23.42c-1.14,0.11-2.31,0.4-3.34,0.88
			C740.84,748.41,733.56,751.89,724.65,756.1z M706.24,959.62c0.56,1.58,0.91,2.65,1.32,3.71c0.72,1.9,1.59,3.76,2.17,5.7
			c1.03,3.41,3.36,5.01,6.68,6.05c35.99,11.26,70.48,8.85,103.08-11.09c2.46-1.5,4.61-3.5,6.9-5.27c-0.34-0.54-0.69-1.07-1.03-1.61
			c-3.75,1.76-7.94,2.97-11.14,5.44c-3.42,2.64-5.88,2.79-9.1,0.13c-6.26-5.16-12.76-10.04-18.99-15.24
			c-3.19-2.66-6.22-5.13-10.73-4.98c-15.69,0.53-31.39,0.84-47.08,1.49c-2.46,0.1-5.33,0.91-7.2,2.4
			C715.94,950.5,711.17,955.17,706.24,959.62z M719.42,754.84c-6.75,0.61-14.41-0.16-20.94,2.2c-13.18,4.77-24.78,12.5-35.05,22.43
			c-7.6,7.35-7.87,15.37-5.95,25.71c13.43,0,26.5,0.05,39.58-0.07c1.61-0.01,3.52-0.55,4.77-1.52c9.39-7.28,18.65-14.73,28.01-22.17
			C726.41,772.66,723.14,764.32,719.42,754.84z M844.44,939.78c1.16-0.33,2.28-0.29,2.7-0.81c7.87-9.83,14.18-20.58,19.21-32.13
			c1.28-2.94-0.13-4.85-1.35-7.22c-8.58-16.63-7.14-27.94,5.78-41.14c2.63-2.69,3.57-5.03,2.82-8.4
			c-1.78-7.95-3.37-15.94-5.44-23.81c-0.89-3.38-2.77-6.51-4.44-10.29c-1.3,1.55-1.86,1.93-1.98,2.42
			c-6.11,23.66-12.3,47.3-18.14,71.03c-0.78,3.16-0.01,6.77,0.37,10.13c0.99,8.63,2.66,17.21,3.07,25.86
			C847.24,930.05,845.41,934.78,844.44,939.78z M657.94,936.51c4.97-0.96,6.35-3.99,5.48-8.86c-1.16-6.56-1.58-13.27-2.97-19.78
			c-1.74-8.13-3.17-16.2-8.04-23.59c-7.16-10.86-12.97-22.61-18.36-32.22c2.29-12.28,4.18-22.38,6.24-33.4
			C621.36,856.51,631.91,912.52,657.94,936.51z M704.58,970.16c-0.57-7.03-4.19-10.01-8.55-12.72
			c-10.1-6.26-20.05-12.77-30.66-19.56c-0.84,0.58-2.44,1.7-4.7,3.26C673.45,953.72,687.37,963.29,704.58,970.16z M758.31,814.24
			c1.74,4.92,3.31,9.33,4.87,13.75c0.43-0.1,0.87-0.19,1.3-0.29c1.63-6.95,3.26-13.91,4.96-21.19c-3.26-2.42-6.29-5.18-11.65-6.44
			c2.81,5.47,6.97,8.86,6.33,14.52C762.13,814.47,760.57,814.38,758.31,814.24z M819.67,951.86c-9.24-15.09-14.83-21.19-21.88-23.82
			c5.33,8.15,10.07,15.66,15.19,22.91C813.64,951.88,816.24,951.45,819.67,951.86z M723.1,835.81c0.62-0.16,1.24-0.33,1.86-0.49
			c1.1-6.35-3.06-21.21-8.43-25.71C719,819.45,721.05,827.63,723.1,835.81z M849.81,790.98c2.69,12.14,5.61,18.76,9.73,21.84
			C860.68,802.99,853.96,797.55,849.81,790.98z M703.47,810.55c-0.61,0.26-1.23,0.53-1.85,0.79c3.15,8,6.3,16,9.44,23.99
			C710.42,823.67,707.28,814.81,703.47,810.55z M746.19,808.39c0.45-8.66-5.3-14.89-8.69-22.05
			C738.53,794.42,741.51,801.74,746.19,808.39z M643.95,824.66c0.77,0.33,1.55,0.67,2.32,1c2.41-5.23,8.67-9.27,4.23-18.26
			C647.95,814.11,645.95,819.39,643.95,824.66z M752.63,809.75c1-0.35,2-0.7,3-1.05c-1.64-5.49-1.49-11.68-8.11-15.26
			C749.21,798.88,750.92,804.31,752.63,809.75z M831.52,941.63c2.1-2.01,4.07-3.89,6.26-5.99c-2.59-2.95-4.58-5.65-8.01-2.38
			C826.93,935.97,827.14,938.68,831.52,941.63z M683.73,919.33c-10.51-12.87-13.25-15.16-19.25-15.89
			C671.26,908.16,673.78,916.39,683.73,919.33z M833.89,922.54c-2.66-10.63-5.94-15.36-12.07-17.33
			C826.27,911.61,830.08,917.07,833.89,922.54z M865.49,885.19c0.9-3.6,1.84-7.18,2.66-10.79c0.17-0.76-0.1-1.61-0.2-2.79
			C863.52,875.57,863.07,880.17,865.49,885.19z M807.6,903.05c2.41,8.25,6.77,13.25,12.05,15.82
			C815.34,913.21,811.47,908.13,807.6,903.05z M840.86,923.43c1.28-5.04,3.06-10.82-2.04-15.82
			C839.5,912.89,840.18,918.16,840.86,923.43z M800.99,913.25c-3.97,6.2-3.97,6.2,5.4,12.24
			C804.3,920.75,802.79,917.33,800.99,913.25z M848.6,814.43c-1.82,9.69-1.64,10.06,5.28,10.98
			C852.15,821.83,850.65,818.69,848.6,814.43z M836.64,797.22c1.26,5.79,2.11,9.71,2.96,13.63
			C839.96,806.66,842.43,802.19,836.64,797.22z M870.35,886.38c0.53-0.02,1.06-0.04,1.59-0.06c0.68-4.08,1.36-8.15,2.03-12.23
			c-0.47-0.08-0.94-0.15-1.41-0.23C871.83,878.03,871.09,882.21,870.35,886.38z M788.64,935.65c2.42-1.6,4.05-2.68,6.93-4.58
			c-3.61-0.68-6.07-1.15-9.79-1.86C787.04,932.04,787.68,933.48,788.64,935.65z M652.21,799.15c-0.83-0.47-1.66-0.93-2.48-1.4
			c-0.91,3.48-4.49,5.64-4.67,11.73C648.21,804.92,650.21,802.04,652.21,799.15z M717.58,942.94c0.1-6.29-4.55-6.75-6.83-9.02
			C712.68,936.47,714.6,939.01,717.58,942.94z M683.59,911.31c0.48-0.57,0.97-1.14,1.45-1.7c-2.19-2.05-4.37-4.09-6.56-6.14
			c-0.5,0.51-1,1.03-1.5,1.54C679.19,907.11,681.39,909.21,683.59,911.31z M731.07,846.49c-0.97-2.26-1.75-4.08-2.76-6.44
			C725.72,845.37,725.72,845.37,731.07,846.49z M846.02,802.35c0.66-0.41,1.33-0.82,1.99-1.22c-1.39-2.72-2.78-5.44-4.17-8.16
			c-0.62,0.29-1.24,0.58-1.86,0.87C843.33,796.67,844.68,799.51,846.02,802.35z M717.94,807.21c-1.75-5.54-1.75-5.54-6.41-5.41
			C713.91,803.8,715.57,805.2,717.94,807.21z M729.47,793.29c0.78-1.9,1.52-3.72,2.66-6.49
			C727.89,788.51,725.09,789.65,729.47,793.29z M673.87,927.27c-2.83-2.33-4.23-3.49-5.97-4.91
			C666.87,926.47,667.95,928.06,673.87,927.27z M850.19,836.97c3.4-2.34,2.9-4.1-0.2-5.54c-0.52-0.24-1.43,0.37-2.5,0.69
			C848.44,833.82,849.23,835.24,850.19,836.97z M735.3,841.2c-0.35,0.19-0.7,0.38-1.06,0.57c0.47,1.14,0.94,2.28,1.4,3.42
			c0.41-0.18,0.83-0.36,1.24-0.54C736.35,843.5,735.82,842.35,735.3,841.2z M686.51,900.04c2.8,5.3,4.51,6.22,6.47,3.55
			C691.06,902.53,689.21,901.52,686.51,900.04z M832.51,805.08c0.2-0.02,0.39-0.04,0.59-0.06c-0.1-1.09-0.19-2.18-0.29-3.27
			c-0.19,0.02-0.39,0.03-0.58,0.05C832.33,802.9,832.42,803.99,832.51,805.08z M734.98,806.92c-0.34,0.25-0.69,0.5-1.03,0.75
			c0.63,1.28,1.26,2.56,2.75,5.6c-0.29-2.77-0.23-3.58-0.48-4.28C735.96,808.24,735.41,807.6,734.98,806.92z"/>
		<path d="M449.92-93.28c7.23,27.14,14.38,53.98,21.78,81.77c41.11-8.41,81.83-16.12,124.46-18.43c1.69,8.77,3.4,17.65,5.11,26.53
			c-7.12-5.84-5.65-14.93-10.07-22.39c-42.78,3.89-85.12,10.76-127.01,21.17c-0.44,1.11-0.96,2.41-1.45,3.63
			c-0.69,0.16-1.53,0.58-1.73,0.37c-3.54-3.57-7.64-1.98-11.43-1.02c-24.83,6.3-49.62,12.75-74.42,19.18
			c-11.27,2.92-22.52,5.92-33.78,8.88c2,8.18,3.94,16.13,5.88,24.08c-6.14-6.33-8.33-14-9.8-22.14c-1.76-0.51-3.56-1.03-6.27-1.82
			c1.48-1.24,2.18-2.29,3.1-2.54c15.15-4.13,30.29-8.27,45.49-12.19c22.81-5.88,45.67-11.58,68.5-17.41
			c1.95-0.5,3.79-1.39,5.08-1.87c-4.89-13.55-10.24-26.72-14.38-40.26c-4.07-13.33-6.91-27.03-10.42-41.06
			c-1.39-0.14-3.09-0.62-4.72-0.43c-67.54,7.99-128.47-8.85-182.13-50.21c-34.9-26.9-59.99-61.46-74.74-103.38
			c-8.7-24.72-13.17-50.12-13.8-76.1c-0.53-21.88,2.68-43.54,8.29-64.75c7.2-27.24,18.29-52.74,34.15-76.11
			c1.12-1.65,1.87-3.56,2.88-5.54c-6.86-8.44-13.61-16.74-20.78-25.57c-9.19,8.37-16.19,17.99-22.99,27.7
			c-20.94,29.89-33.42,63.16-38.4,99.22c-6.8,49.18-3.87,97.73,11.28,145.15c13.54,42.41,35.3,79.77,69.72,108.96
			c25.21,21.39,53.62,36.85,85.17,46.7c18.14,5.66,36.62,9.9,55.48,11.57c15.62,1.38,31.41,1.45,47.11,1.08
			c12.78-0.3,25.52-2.18,38.29-3.22c2.11-0.17,4.28,0.36,6.42,0.56c0.04,0.67,0.08,1.35,0.12,2.02c-10.12,1.62-20.2,4.25-30.36,4.64
			c-19.21,0.73-38.54,1.14-57.69-0.15c-14.41-0.97-28.77-4.21-42.91-7.5c-26.27-6.09-51.12-16.04-74.14-30.19
			c-39.85-24.5-69.68-58.04-88.84-100.66c-10.77-23.95-18.41-48.95-22.6-75.05c-3.71-23.12-5.58-46.28-4.7-69.62
			c1.97-51.77,15.04-99.99,46.71-142.01c5.95-7.89,12.44-15.37,19.01-23.44c-5.45-5.92-10.95-11.89-16.46-17.87
			c0.53-0.52,1.07-1.04,1.6-1.56c7.98,2.77,11.94,10.55,18.51,16.25c12.65-10.43,25.33-21.39,42.91-23.95c0.24,5-3.26,4.62-5.4,5.32
			c-12.49,4.11-22.69,11.76-32.3,20.37c-0.61,0.55-0.95,1.42-1.81,2.76c6.19,8.14,12.48,16.4,19.34,25.43
			c2.95-3.53,5.71-6.71,8.33-10c22.88-28.78,50.88-51.06,84.33-66.4c42.87-19.66,87.48-22.7,133.3-13.83
			c1.46,0.28,2.75,1.45,4.5,2.41c-2.48,3.25-5.16,2.25-7.53,1.68c-18-4.35-36.28-4.98-54.67-4.4c-17.6,0.55-34.66,4.21-51.34,9.46
			c-33.46,10.53-62.34,28.9-87.03,53.52c-21.39,21.33-38.43,45.8-50.81,73.62c-9.8,22.01-16.26,44.72-19.77,68.5
			c-3.7,25.08-2.49,49.84,1.75,74.74c3.61,21.21,10.49,41.2,20.05,60.26c13.61,27.13,32.12,50.49,55.4,70.14
			c26.23,22.13,55.7,38.13,88.63,47.54c49.91,14.25,99.34,13.22,148.31-4.88c35.61-13.16,66.61-33.23,93.18-60.17
			c6.64-6.74,12.52-14.24,18.31-22.08c-10.1,4.17-19.78,9-32.58,2.98c4.74-0.68,7.66-1.48,10.56-1.44
			c11.25,0.16,19.53-5.2,25.98-13.78c13.12-17.45,17.52-47.67,5.11-67.62c-6.82-10.97-20.22-15.21-33.71-9.35
			c-4.23,1.84-6.23,5.4-6.18,9.74c0.12,9.27-4.55,16.02-10.84,22.04c-5.68,5.43-11.29,10.95-17.15,16.2
			c-3.98,3.56-5.68,7.89-6.1,13.06c-0.54,6.84,1.6,9.8,8.46,10.52c4.63,0.48,9.35,0.26,13.95,0.88c6.55,0.88,11.29,4.5,13.61,10.8
			c0.39,1.04-0.22,2.45-0.43,4.22c-1.41-0.81-2.52-1.05-2.76-1.65c-3.28-8.16-10.07-9.64-17.8-9.78c-3.75-0.07-7.64-0.24-11.21-1.27
			c-6.39-1.84-8.54-5.1-8.51-11.56c0.03-7.29,2.21-13.71,7.76-18.77c5.38-4.91,10.54-10.06,16.01-14.86
			c5.93-5.19,9.75-11.09,10.39-19.33c0.78-10.11,5.23-14,15.19-16.27c20.32-4.64,32.33,7.96,37.04,21.14
			c4.76,13.32,5.09,26.8,1.58,40.45c-0.49,1.91-0.85,3.86-1.55,7.04c33.53-49.49,46.95-141.14,6.69-215.24
			c-37.91-69.77-96.73-112.46-177.52-126.42c5.76-2.81,9.93-1.98,14.02-1.35c29.29,4.54,55.86,16.06,80.56,32.03
			c34.3,22.18,62.67,50.27,83.05,85.86c15.23,26.6,23.79,55.39,27.23,85.89c2.24,19.87,2.04,39.59-0.66,59.3
			c-4.25,30.94-14.66,59.8-30.69,86.59c-25.41,42.46-60.8,74.24-105.07,95.88c-14.3,6.99-29.8,11.54-44.75,17.2
			C453.9-94.58,452.27-94.08,449.92-93.28z M434.24-86.1c5.84,27.44,11.01,53.66,25.5,77.3c2.75-0.65,5.15-1.22,7.81-1.86
			c-7.13-26.27-14.08-51.89-21.18-78.06C441.97-87.77,438.41-87,434.24-86.1z"/>
		<path d="M901.54,433.55c3.72,3.47,2.02,6.67-0.41,9.92c-1.33,1.78-3.34,3.61-3.55,5.57c-0.96,9.28-6.99,12.81-15.09,14.35
			c-1.42,0.27-2.86,0.45-4.1,0.65c-0.55,0.62-1.13,0.97-1.28,1.46c-4.59,14.69-19.5,19.45-32.41,15.99
			c-6.52-1.75-12.7-3.97-17.99-8.38c-7.97-6.63-12.99-14.23-8.86-25.22c-6.25-5.28-14.38-8.97-14.31-18.67
			c0.04-5.35,0.78-10.49,5.56-13.83c-4.1-13.48-3.37-15.21,10.33-24.69c1.32-11.56,2.78-23.09,3.87-34.65
			c0.33-3.55,1.03-7.09-2.9-10.16c-22.25-17.39-30.67-41.1-29.37-68.5c1.33-28,11.12-52.98,30.92-73.05
			c17.93-18.18,40.67-26.18,65.97-27.88c28.55-1.91,53.25,7.13,74.81,25.38c15.38,13.02,27.79,28.45,33.58,48.02
			c9.9,33.43,4.19,64.32-16.82,92.28c-13.41,17.84-31.02,29.56-52.25,36.1c-3,0.93-5.8,2.52-8.74,3.83
			c-1.21,8.41-2.08,16.51-3.58,24.48c-1.84,9.74-3.8,11.18-13.66,10c-5.45-0.65-10.84-2.08-16.16-3.53
			c-18.78-5.12-37.61-10.11-56.22-15.79c-5.56-1.7-9.83,0.36-13.97,2.5c-5.25,2.7-4.44,10.31,1.19,13.6
			c2.48,1.45,5.32,2.49,8.13,3.1c22.4,4.92,44.58,11.17,67.69,12.07c4.35,0.17,8.8,0.22,13.07-0.5c3.09-0.52,5.96-2.4,8.68-3.57
			c0.4,4-0.81,6.13-5.31,7.62c-2.15,0.71-4.39,1.15-6.59,1.72c-28.54-1.79-56.6-6.37-83.95-14.86c-3.94-1.22-5.97-0.26-7.37,4.36
			c2.82,1.51,5.4,3.46,8.29,4.33c16.7,5.02,33.35,10.28,50.27,14.39c7.19,1.75,15.06,1.54,22.54,1.03
			C896.66,442.69,901.99,440.66,901.54,433.55z M875.6,405.59c8.43,2.2,16.78,4.77,25.3,6.48c6.93,1.39,8.42,0.14,9.62-6.39
			c0.99-5.42,2-10.92,2.12-16.4c0.2-8.78,4.93-13.22,12.79-15.34c1.41-0.38,2.81-0.78,4.18-1.28
			c35.51-12.91,57.52-38.07,65.08-74.78c6.89-33.42-3.66-62.3-27.67-86.04c-28.42-28.1-62.34-37.59-101.12-27.1
			c-18.3,4.95-34.57,13.69-46.5,29.24c-18,23.47-26.36,49.59-23.11,79.22c2.2,20.09,10.52,36.79,26.86,48.96
			c4.09,3.04,5.38,6.49,4.86,11.19c-0.86,7.81-1.71,15.63-2.4,23.46c-0.43,4.86-0.56,9.75-0.83,14.82c8.6,2.13,16.4,4.06,24.05,5.96
			c0.59-0.81,1.13-1.23,1.22-1.74c2.66-15.47,5.76-30.89,7.77-46.44c1.86-14.42-0.42-28.42-7.48-41.45
			c-2.49-4.6-4.76-9.38-6.53-14.29c-5.4-14.93,0.89-23.43,16.71-22.97c0.87,0.03,1.75,0.11,2.61,0.24
			c8.25,1.18,15.86,4.93,24.31,5.69c3.08,0.27,6.1,3.24,8.75,5.45c1.72,1.43,2.72,3.72,3.66,5.08c14.98-6.13,18.89-4.35,27.26,11.21
			c1.87,0,3.89-0.04,5.9,0.01c9.27,0.24,13.06,4.34,12.85,13.68c-0.22,9.52-6.47,14.74-13.92,18.51c-6.72,3.4-13.78,6.44-21.03,8.4
			c-12.14,3.29-18.29,11.65-21.77,22.82C884.66,376.19,880.23,390.6,875.6,405.59z M871.84,277.58c-3.81-0.91-6.77-2.01-9.8-2.27
			c-13.9-1.19-18.43,4.67-13.63,17.82c1.99,5.45,4.67,10.67,7.33,15.84c5.46,10.63,8.02,21.94,7.14,33.75
			c-0.75,10.12-2.35,20.2-3.95,30.24c-1.36,8.53-3.25,16.98-5.03,26.16c6.29,1.88,11.71,3.51,17.52,5.24
			c0.99-2.75,1.87-4.87,2.51-7.06c3.52-11.99,6.81-24.05,10.51-35.98c3.98-12.82,10.6-23.35,24.95-26.62
			c2.81-0.64,5.61-1.6,8.23-2.82c5.79-2.68,11.56-5.42,17.14-8.51c4.08-2.26,5.95-6.28,6.65-10.79c0.77-5-1.2-8.54-5.23-9.58
			c-5.47-1.4-8.91,0.28-10.86,5.34c-0.42,1.09-0.63,2.27-1.15,3.3c-1.89,3.75-4.89,4.93-7.71,3.12c-2.91-1.86-3.26-5.02-0.8-8.22
			c0.88-1.15,1.93-2.2,3.04-3.14c3-2.53,2.8-5.38,1.3-8.64c-3.32-7.22-9-8.25-15.89-2.74c0.43,2.85,0.99,5.69,1.27,8.55
			c0.33,3.38-0.17,6.97-3.89,7.83c-2.52,0.58-6.62,0.33-7.9-1.26c-1.63-2.02-1.89-5.92-1.31-8.71c0.61-2.93,2.91-5.51,4.74-8.72
			c-4.13-3.95-7.02-9.19-13.68-8.68c0,4.59,0.41,8.68-0.1,12.64c-0.63,4.86-4.16,7.51-8.72,8.71c-4.19,1.11-9.66-0.84-11.71-4
			c-2.67-4.11-1.13-7.93,1.22-11.39C865.94,284.13,868.42,281.64,871.84,277.58z M894.35,448.25c-30.45,1.4-57.71-10.71-86.2-19.31
			c0.5,7.93,6.01,11.39,11.86,13.65c13,5.01,26.18,9.57,39.45,13.82c5.19,1.66,10.78,2.39,16.24,2.83
			C885.52,460.05,890.96,456.74,894.35,448.25z M822.35,449.63c-2.98,6.46-0.95,11.65,3.55,16.55c7.08,7.72,16.22,11.14,26.18,12.25
			c9.24,1.04,18.28-5.52,20.74-13.39C856.02,459.91,839.22,454.78,822.35,449.63z M878.98,287.35c-0.29-0.49-1.1-3.23-2.9-4.3
			c-0.92-0.55-3.78,1.68-5.46,3.03c-1.3,1.05-2.59,2.56-3.02,4.11c-0.55,1.97-1.07,4.92-0.05,6.08c1.17,1.33,4.21,1.93,6.14,1.5
			C877.9,296.84,879.59,293.57,878.98,287.35z M895.44,304.34c6.89-1.94,6.94-2.18,2.88-8.54
			C897.36,298.64,896.62,300.83,895.44,304.34z"/>
		<path d="M1985.85,584.56c1.38,2.44,0.02,3-2.09,3.1c-9.89,0.47-19.77,0.96-29.66,1.43c-2.62,0.12-5.36-0.24-7.81,0.44
			c-1.16,0.32-1.8,2.56-3.54,5.27c15.47-1.36,28.89-0.04,42.66,2.99c1.17,10.32,2.31,20.38,3.53,31.2c2.84,0.22,5.93,0.42,9.01,0.71
			c7.4,0.68,13.38,6.01,14.52,12.9c1.28,7.74-1.74,13.9-9.83,16.24c-7.42,2.14-15.33,2.91-23.08,3.54
			c-8.63,0.7-17.34,0.91-25.99,0.65c-5.14-0.16-10.55-0.86-15.29-2.72c-9.24-3.62-11.38-14.15-4.3-21.28
			c3.53-3.55,8.45-5.73,12.88-8.61c-1.25-0.44-3.06-1.09-5.83-2.08c5.25-4.2,10.29-2,14.87-2.4c4.64-0.41,9.33-0.15,14-0.16
			c4.92-0.01,9.84,0,15.6,0c-1.7-9.24-3.3-17.95-5.03-27.32c-11.98,2.9-23.93-2.56-35.28,1.52c-3.15,7.87,1.35,16.36-3.85,23.4
			c-3.1-16.91-0.34-33.86-1.12-50.76c-0.77-16.79-0.17-33.64-0.17-50.93c-16-0.63-32.53-1.17-49.06-1.96
			c-16.48-0.78-33.14,1.68-49.79-1.91c-3.3-22.57-0.75-44.74-2.21-67.5c-11.24-0.46-22.2-0.9-34.11-1.38
			c-0.32-3.89-0.85-7.55-0.87-11.21c-0.09-18.67-0.02-37.34-0.09-56.01c-0.01-3.71-0.41-7.43-0.69-12.21
			c10.88-3.65,22.13-1.38,33.17,0.41c-0.37,4.36-0.94,8.24-0.98,12.12c-0.17,16.92-0.15,33.84-0.3,50.76
			c-0.04,4.34-0.43,8.67-0.67,13.04c1.92,1.46,3.77,1.94,4.67-0.95c0.42-1.35,0.31-2.89,0.31-4.34c0.02-21.56,0.01-43.13,0.01-65.58
			c1.65-0.21,3.82-0.75,5.99-0.74c26.26,0.19,52.51,0.74,78.76,0.61c22.15-0.11,44.3-1.01,66.45-1.5c9.53-0.21,19.27-2.37,28.3,2.7
			c0.49,0.27,0.89,0.68,1.49,1.15c0,48.22,0,96.55,0,145.41c-11.08,0-21.45,0-32.36,0c-0.3,2.38-0.77,4.29-0.74,6.19
			c0.24,15.74,0.72,31.49,0.76,47.23c0.01,2.93-1.62,5.86-2.49,8.78c-1.27-19.54-2.54-39.08-3.81-58.48c-12.63,0-24.71,0-36.65,0
			c-1.71,10.92-1.26,51.83,0.66,58.24C1959.06,584.56,1972.46,584.56,1985.85,584.56z M1844.15,514.6
			c28.84,0.63,57.31,1.25,85.79,1.88c28.77,0.64,57.54,1.3,86.61,1.96c0-4.23,0-9.08,0-13.93c0-39.07,0.02-78.15-0.03-117.22
			c0-3.63-0.44-7.26-0.66-10.64c-8.33,0.43-15.59,0.93-22.85,1.15c-22.14,0.64-44.28,1.57-66.43,1.64
			c-25.06,0.09-50.12-0.65-75.18-0.93c-2.21-0.02-4.43,0.68-7.26,1.15C1844.15,424.41,1844.15,468.65,1844.15,514.6z M1979.43,634
			c0-0.17,0-0.34,0-0.51c-4.08,0-8.17-0.23-12.23,0.05c-8.69,0.59-17.47,0.93-25.52,4.92c-4.88,2.42-7.25,6.27-6.85,11.07
			c0.35,4.27,3.13,6.83,8.91,8.11c1.42,0.31,2.87,0.7,4.31,0.67c15.34-0.3,30.69-0.55,46.03-1.13c2.79-0.11,5.64-1.42,8.26-2.61
			c5.76-2.63,7.58-8.13,4.85-13.76c-1.93-3.96-4.97-6.58-9.44-6.75C1991.64,633.83,1985.53,634,1979.43,634z M1830.15,445.78
			c0-24.87,0-48.74,0-72.57c-7.53,0-14.33,0-21.51,0c0,23.82,0,46.99,0,71.21C1815.89,444.88,1822.94,445.32,1830.15,445.78z"/>
		<path d="M2318.64,818.63c-8.08,10.49-16.39,22.08-25.52,32.97c-29.57,35.25-59.46,70.23-89.18,105.35
			c-3.95,4.67-7.83,9.41-11.45,14.34c-1.48,2.01-2.52,4.52-3.15,6.96c-2.57,9.96-8.83,13.46-18.21,9.43
			c-3.69-1.59-7.2-3.89-10.31-6.45c-18.44-15.19-36.49-30.87-55.17-45.77c-19.33-15.43-39.23-30.14-58.86-45.19
			c-15.71-12.05-31.46-24.04-47-36.31c-3.84-3.03-7.02-6.95-10.3-10.64c-1-1.13-1.29-2.88-2.57-5.89c2.65,1.02,4.2,1.13,4.88,1.95
			c11.63,14.18,27.03,23.79,41.45,34.62c38.17,28.67,76.56,57.05,112.09,89.05c7.56,6.8,15.91,12.75,24.05,18.88
			c3.52,2.65,7.47,4.54,12.9,1.48c-63.59-56.48-129.27-109.64-194.24-164.07c1.73-1.46,1.92-1.7,2.18-1.82
			c0.25-0.12,0.55-0.14,0.83-0.15c0.29-0.02,0.6-0.04,0.86,0.05c0.54,0.19,1.11,0.38,1.58,0.7c0.72,0.49,1.37,1.09,2.04,1.65
			c62.51,52.34,125.02,104.69,187.05,156.62c10.41-12.84,21.19-26.43,32.29-39.74c31.9-38.25,63.93-76.38,95.89-114.57
			c0.91-1.09,1.62-2.35,2.58-3.77c-64.36-51.38-128.47-102.57-192.85-153.97c-4.9,5.26-9.36,9.82-13.58,14.59
			c-18.54,20.95-37.13,41.86-55.49,62.96c-20.26,23.29-40.29,46.79-60.45,70.16c-4.72,5.47-4.72,12.2-5.19,18.76
			c-0.3,4.11-0.05,8.25-1.21,12.29c-3.06-11.7-6.02-23.35,3.09-33.99c14.39-16.8,28.54-33.82,43.02-50.55
			c16.78-19.38,33.74-38.6,50.75-57.78c10.05-11.33,20.42-22.37,30.45-33.71c2.27-2.57,3.74-5.85,6.14-9.7
			c1.2,0.65,3.31,1.42,4.97,2.75c24.58,19.64,49.07,39.39,73.63,59.05c21.34,17.07,42.56,34.31,64.21,51
			c14.75,11.37,30.17,21.87,45.22,32.85c2.33,1.7,5.71,2.36,4.88,7.18C2310.63,812.12,2315.04,814.85,2318.64,818.63z"/>
		<path d="M69.78,576.92c-3.75-10.45-11.84-16.63-13.48-26.63c2.69-0.24,4.69-0.71,6.64-0.54c24.93,2.18,49.85,4.44,74.77,6.71
			c1.15,0.1,2.29,0.44,3.43,0.7c6.79,1.52,7.72,3.34,5.21,9.68c-8.46,21.36-16.89,42.74-25.32,64.11
			c-2.54,6.44-5.03,12.91-10.55,18.5c-7.06-6.29-9.88-15.04-14.91-22.75c-3.38,1.47-6.55,2.72-9.61,4.21
			c-49.04,23.91-122.91,11-157.29-47.56c-9.99-17.02-15.38-35.49-16.44-55.47c-1.64-30.79,6.94-57.76,26.36-81.69
			c16.63-20.49,38.23-32.83,63.06-40.09c35.97-10.52,69.06-2.91,99.76,17.11c10.37,6.76,18.49,15.9,23.49,27.52
			c5.63,13.08,2,28.5-8.38,36.32c-5.87,4.43-12.13,5.34-18.97,3.42c-8.29-2.33-15.11-7.01-21.79-12.45
			c-15.81-12.88-33.77-20.74-54.66-18.95c-24.91,2.13-42.24,19.23-49.35,39.97c-8.67,25.29-1.72,47,15.91,65.95
			c12.28,13.2,26.98,21.13,45.66,19.52c7.81-0.67,15.69-0.94,23.38-2.28C61.02,581.47,65.04,578.91,69.78,576.92z M61.49,554.31
			c3.65,5.53,6.22,9.69,9.05,13.65c5.48,7.68,3.66,13.33-5.9,16.57c-6.01,2.04-12.39,3.31-18.7,4.13
			c-19.76,2.58-38.42,0.27-54.18-13.51c-25.21-22.04-37.24-52.35-20.6-86.06c10.01-20.27,26.37-31.88,49.2-34.25
			c21.67-2.25,39.67,6.76,57.16,17.68c0.74,0.46,1.65,0.94,2.01,1.65c3.9,7.56,11.56,9.29,18.59,11.56
			c9.01,2.9,15.78-0.02,20.86-8.13c4.67-7.45,4.86-15.45,2.14-23.51c-3.57-10.56-10.47-18.72-19.51-25.05
			c-28.89-20.22-60.36-28.31-95.18-19.6c-20.7,5.18-39.62,14.31-54.98,29.16c-38.05,36.8-44,88.29-24.29,131.93
			c26.03,57.62,92.74,79.64,147.12,60.37c7.29-2.58,14.25-6.14,21.98-9.51c4.79,7.11,9.42,13.98,15.04,22.32
			c10.92-28.24,21.22-54.88,31.93-82.57C115.88,558.87,89.57,556.66,61.49,554.31z"/>
		<path d="M1145.28,593.36c3.11,13.3,6.09,26.55,9.31,39.75c5.78,23.7,12.35,47.22,17.36,71.08c3.64,17.35,6.02,35.08-0.55,52.57
			c-8.22,21.87-26.59,33.74-48.55,35.79c-14.29,1.34-23.78-8-24.51-22.33c-0.77-15.11,6.44-26.23,17.36-35.41
			c9.33-7.84,19.9-13.16,33.42-13.08c-3.92-18.88-7.71-37.18-11.58-55.82c-28.1,13.43-55.27,26.41-83.44,39.87
			c0.31,2.36,0.44,5.49,1.16,8.47c4.56,18.94,9.45,37.8,13.83,56.78c2.01,8.74,3.75,17.56,1.62,26.74
			c-1.91,8.26-5.53,15.47-11.84,20.92c-12.75,11-26.61,19.41-44.35,20.1c-21.29,0.83-28.75-21.07-22.47-34.69
			c7.31-15.88,19.41-25.85,35.93-30.76c4.96-1.47,10.05-2.52,15.95-3.98c-0.77-3.23-1.41-5.94-2.05-8.64
			c-7.35-31.39-14.8-62.76-22.02-94.18c-3.43-14.9-0.81-19.66,12.11-25.63c32.24-14.89,64.41-29.93,96.54-45.06
			C1133.41,593.54,1138.21,591.94,1145.28,593.36z M1048.44,773.34c-5.25,0.98-8.95,1.56-12.6,2.36c-8.9,1.96-17.64,4.64-24.1,11.39
			c-4.8,5.02-8.8,10.8-13.07,16.32c-5.19,6.7-5.42,13.87-1.74,21.33c3.56,7.21,9.78,9.44,17.31,9.41
			c15.49-0.05,27.8-7.47,39.31-16.81c11.57-9.39,15.41-21.78,12.76-35.95c-2.67-14.28-6.26-28.38-9.59-42.53
			c-2.84-12.06-5.87-24.08-8.62-35.31c31.34-15.04,61.43-29.48,92.43-44.35c4.68,21.95,9.42,44.19,14.09,66.12
			c-1.15,0.66-1.38,0.91-1.64,0.93c-1.16,0.1-2.34,0.27-3.48,0.16c-10.54-0.98-19.46,3.17-27.51,9.25
			c-11.91,8.99-20.54,19.83-18.82,36.1c1.1,10.4,9.4,18.13,19.64,16.68c34.07-4.82,48.81-28.58,48.2-57.28
			c-0.26-12.06-2.98-24.2-5.68-36.05c-5.88-25.78-12.46-51.39-18.76-77.07c-1.71-6.96-3.45-13.91-5.25-21.13
			c-2.52,0.47-3.98,0.54-5.28,1.02c-3.55,1.3-7.11,2.62-10.54,4.22c-29.27,13.66-58.45,27.51-87.79,41.03
			c-15.21,7.01-16.29,8.6-12.42,25.28c5.72,24.63,11.68,49.21,17.27,73.87C1044.81,752.2,1046.36,762.23,1048.44,773.34z"/>
		<path d="M1.58,740.19c-6.96,33.57-0.27,63.43,22.46,89.59c13.29-5.69,22.66-14.95,29.77-26.76c-7.65,7.01-14.2,15.39-25.59,17.77
			c3.61-3.39,7.13-6.88,10.84-10.16c13.36-11.81,20.93-26.31,20.4-44.4c-0.2-6.9-2.17-13.5-4.97-21.55
			c-5.19,4.42-9.53,7.65-13.33,11.43c-9.1,9.06-17.66,18.54-21.8,31.15c-2.68,8.17-2.6,15.99,1.55,23.68
			c0.85,1.58,1.12,3.48,1.74,5.52c-4.86,0.54-5.63-2.81-6.7-5.21c-4.86-10.89-3.59-21.77,1.69-31.98
			c8.75-16.93,22.06-29.83,38.21-40.8c5.92,8.65,7.1,18.37,8.29,28.03c0.49,3.93-0.25,7.78,2.34,11.64
			c1.43,2.13,0.61,6.28-0.15,9.27c-4.61,18.16-16.19,31.25-31.18,41.71c-2.34,1.63-4.79,3.11-7.04,4.55
			c0.75,3.41,2.62,3.69,4.64,2.32c6-4.08,11.98-8.22,17.78-12.58c7.23-5.42,14.3-10.91,23.43-13.05
			c18.87-4.42,34.42,1.51,47.68,14.81c7.5,7.52,12.92,16.5,17.17,26.14c11.57,26.24,12.68,53.57,7.6,81.32
			c-1.08,5.91-3.53,11.74-6.24,17.16c-5.46,10.94-14.06,16.44-26.97,16.72c-9.91,0.22-19.7,3.19-23.19,14.94
			c-1.94,6.53-7.75,9.12-13.49,11.44c-10.63,4.3-21.8,5.24-32.63,2.19c-35.93-10.12-64.82-29.9-82.75-63.5
			c-14.44-27.05-5.59-66.9,20.49-83.23c8.2-5.13,17.11-7,26.47-7.89c4.87-0.46,9.72-1.2,15.26-1.91
			c-16.31-23.1-30.25-46.2-28.53-75.05C-4.69,755.5-3.74,747.45,1.58,740.19z M30.79,844.36c-1.71-0.25-4.25-1.12-6.69-0.9
			c-8.11,0.72-16.31,1.25-24.22,3c-5.83,1.29-11.87,3.5-16.77,6.83c-18.59,12.64-24.98,31.61-24.47,52.98
			c0.32,13.73,6.24,26.21,14.55,36.86c19.65,25.17,45.03,41.79,76.57,48.51c11.24,2.4,21.3-1.06,31.01-5.98
			c2.11-1.07,4.26-3.54,4.88-5.79c2.46-9.01,8.83-13.37,17.16-15.72c4.73-1.33,9.48-2.6,14.28-3.61c4.16-0.87,7.45-2.67,10.27-6.03
			c5.54-6.59,9.38-14.02,11.92-22.13c6.08-19.38,5.94-39.15,1.85-58.71c-3.93-18.81-11.58-36.03-26.76-48.9
			c-9.01-7.64-19.19-12.08-31.22-11.26c-9.9,0.68-18.52,4.55-26.22,10.73c-5.68,4.56-11.52,8.91-17.3,13.34
			C36.79,839.79,33.95,841.95,30.79,844.36z"/>
		<path d="M1816.07,102.81c2.16,1.59,3.13,1.93,3.43,2.58c7.47,16.07,10.99,32.68,4.71,49.9c-4.1,11.23-13.82,16.74-24.7,18.7
			c-10.83,1.95-22.31,2.82-31.87-4.89c-9.53-7.68-17.47-16.6-21.97-28.38c-7.05-18.45-14.41-36.79-21.9-55.07
			c-15.88-38.72-31.92-77.38-47.91-116.06c-3.11-7.53-6.31-15.03-9.54-22.74c-3.95-1.8-9.45-2.62-9.37-8.59
			c0.09-6.41,0.84-13,7.27-16.67c13.64-7.78,27.55-14.89,43.27-17.74c4.22-0.77,8.11-3.16,12.3-4.27c3.55-0.94,7.31-1.1,10.42-1.52
			c5.45,6.85,9,13.01,2.83,19.79c28.32,68.44,56.49,136.49,84.59,204.58c0.72,1.75,0.65,3.84,0.19,6.06
			c-19-37.5-33.09-77.14-50.73-115.9c-17.09,13.16-36.41,20.41-58.13,24.67c3.47,8.84,6.63,17.16,9.99,25.4
			c9.78,23.96,19.13,48.12,29.7,71.73c4.34,9.68,11.07,18.37,17.32,27.07c4.07,5.67,10.23,8.57,17.39,8.58
			c4.94,0.01,9.95,0.25,14.8-0.46c14.64-2.15,24.2-12.41,24.52-27.36c0.17-7.71-1.52-15.51-2.75-23.2
			C1819.13,114.07,1817.63,109.22,1816.07,102.81z M1730.97-74.54c-20.3,7.42-39.49,14.43-59.41,21.71
			c11.15,27.17,22.03,53.65,32.74,79.73c3.49-3.1,6.49-6.21,9.92-8.74c10.95-8.05,23.2-13.12,36.65-15.27
			c3.57-0.57,7.12-1.29,11.61-2.11C1751.81-24.71,1741.52-49.31,1730.97-74.54z M1763.46,7.63c-16.74-4.05-50.37,11.24-53.77,23.87
			C1726.16,30.92,1755.51,18.11,1763.46,7.63z M1664.48-71.93c18.81,3.22,51.15-9.64,58.5-23.43
			C1701.27-91.07,1681.73-84.57,1664.48-71.93z M1661.13-64.86c4.41,6.76,9.07,7.48,14.91,5.39c17.17-6.15,34.42-12.1,51.82-18.19
			c-1.32-5.33,6.62-8.83,2.86-15.55C1711.69-73.69,1687.79-67.22,1661.13-64.86z"/>
		<path d="M1422.21,1106.23c-1.6,12.46-8.9,22.06-16.66,31.04c-6.24,7.23-13.93,13.21-20.88,19.84c-2.91,2.78-5.95,1.71-8.94,0.6
			c-3.46-1.29-6.81-2.89-11.05-4.72c-1.72,20.58,0.91,39.47,8.68,58.86c-3.6-0.45-5.57-0.41-7.35-0.97
			c-12.75-3.93-23.53-11.45-33.86-19.52c-13.87-10.83-26.68-22.82-33.43-39.57c-2.79-6.92-4.33-14.39-5.91-21.73
			c-0.87-4-2.29-6.54-6.28-8.43c-38.48-18.18-67.03-46.99-87.21-84.02c-11.86-21.77-20.73-44.86-24.99-69.47
			c-1.23-7.11-3.82-13.38-9.6-18.06c-1.11-0.9-2.09-2.1-2.77-3.35c-1.85-3.46-0.76-6.57,3.05-7.35c2.7-0.56,6.02-0.7,8.43,0.37
			c8.55,3.83,17.47,4.17,26.52,3.84c55.46-1.99,102.15,18.86,142.83,55.07c7.81,6.95,15.12,14.49,22.44,21.97
			c2.47,2.52,4.57,3.9,8.31,2.69c18.32-5.92,35.28-1.26,50.87,8.33c10.62,6.53,20.4,14.47,30.28,22.13
			c7.97,6.19,15.53,12.91,23.93,19.95c-5.84,3.45-10.81-0.41-15.71,0.53c-5.4,1.03-10.98,1.03-16.42,1.87
			c-5.17,0.79-10.27,2.03-15.38,3.17c-5.08,1.13-10.14,2.37-15.74,3.69c2.52,5.21,5.09,10.58,7.72,15.91
			c1.4,2.84,2.1,5.51-1.14,7.61c-0.02-5.71-4-9.46-6.77-13.84c-2.08-3.29-3.98-6.69-6.48-10.91c18.86-7.17,36.94-11.24,57.46-12.48
			c-4.77-3.93-7.83-6.5-10.95-9c-8.4-6.75-16.41-14.08-25.33-20.07c-16.32-10.97-33.79-18.52-54.26-13.36
			c-1.66,0.42-3.51,0.03-5.23,0.27c-3.51,0.5-5.92-0.87-8.4-3.39c-8.38-8.51-16.73-17.11-25.71-24.97
			c-27.48-24.04-59.01-40.05-94.88-47.74c-14.75-3.16-29.5-3.29-44.38-3.17c-8.48,0.07-16.91,0.07-24.82-3.9
			c-1.45-0.73-3.58-0.1-5.39-0.1c-0.4,0.43-0.8,0.86-1.19,1.3c10.41,7.07,12.11,18.12,14.87,28.8c2.84,10.95,5.82,21.91,9.63,32.54
			c3.13,8.75,7.21,17.21,11.5,25.48c16.99,32.8,40.61,59.49,72.9,78.09c5.03,2.9,9.62,6.59,14.72,9.36
			c5.37,2.92,7.73,7.17,8.59,13.09c2.01,13.88,7.78,26.19,17.21,36.6c11.82,13.04,25.28,24.1,40.84,32.47
			c2.91,1.57,5.86,3.07,9.56,5c-6.97-36.76-7.88-50.96-3.72-59.82c3.97,1.68,8.09,3.13,11.93,5.11c4.41,2.26,7.62,1.96,11.72-1.53
			c12.79-10.89,23.93-22.93,31.52-38.08C1418.04,1109.96,1420.4,1108.23,1422.21,1106.23z"/>
		<path d="M679.72,1095.56c-10.13-13.77-19.58-26.62-28.92-39.32c-17.49,20.65-34.75,41.02-52.63,62.11
			c6.29,8.08,12.7,16.26,19.04,24.48c7.09,9.2,14.47,18.2,21.08,27.73c8.76,12.64,10.64,26.15,3.25,40.32
			c-5.47,10.5-12.36,19.73-22.5,26.17c-7.58,4.81-15.65,6.91-23.88,2.06c-8.68-5.11-11.8-13.54-11.21-23.14
			c1.03-16.51,9.3-29.07,22.45-38.66c1.87-1.37,3.81-2.64,5.7-4c0.18-0.13,0.16-0.53,0.43-1.49c-13.26-17.06-26.9-34.38-40.25-51.92
			c-6.7-8.79-12.87-17.98-19.28-26.99c-3.67-5.16-3.82-9.99,0.68-14.97c6.44-7.11,12.58-14.49,18.8-21.8
			c13.96-16.4,27.9-32.82,41.85-49.23c4.13-4.86,7.92-10.11,15.35-12.89c3.17,3.52,6.83,7.15,9.99,11.17
			c15.83,20.12,31.72,40.19,47.19,60.58c9.67,12.74,19.16,25.74,22.79,41.82c5.36,23.75-3.99,43.3-23.84,55.03
			c-10.54,6.23-21.59,3.26-27.87-7.27c-4.25-7.13-6.34-14.85-4.27-23.43C657.4,1116.55,664.92,1103.98,679.72,1095.56z
			 M686.9,1097.71c-4.13,2.11-7.44,3.34-10.25,5.31c-11.75,8.21-17.34,20.41-19.3,33.92c-1.09,7.57,2.31,15.12,8.06,20.48
			c3.85,3.59,8.87,5.42,14.51,2.75c14.7-6.96,24.16-17.83,26.23-34.36c1.83-14.63-2.2-27.93-10.79-39.48
			c-20.31-27.32-41.09-54.29-61.8-81.32c-4.84-6.32-6.45-6.16-11.93,0.21c-19.54,22.73-39.1,45.44-58.57,68.23
			c-10.62,12.43-10.6,12.72-0.62,25.8c12.19,15.97,24.55,31.81,36.66,47.84c6.61,8.76,12.85,17.8,18.94,26.27
			c-1.02,1.69-1.26,2.22-1.63,2.64c-0.38,0.43-0.84,0.85-1.35,1.11c-16.54,8.19-23.08,22.73-25.79,39.91
			c-1.07,6.77,1.08,12.09,5.91,16.45c4.82,4.35,10.48,4.77,16.3,2.25c2.65-1.15,5.32-2.47,7.63-4.18
			c9.88-7.34,16.76-17.13,20.82-28.54c2.79-7.84,2.74-16.26-2.03-23.62c-6-9.27-12.15-18.47-18.81-27.27
			c-8.77-11.58-18.09-22.73-26.91-33.73c19.67-23.34,38.73-45.95,58.25-69.11C663.81,1064.31,674.29,1081.38,686.9,1097.71z"/>
		<path d="M402.28,449.27c-23.04,5.36-45.62,10.6-68.94,16.03c0,7.95,0.03,16.31-0.01,24.68c-0.06,12.49,0.05,24.99-0.32,37.47
			c-0.39,13-7.63,21.72-18.91,27.11c-9.51,4.55-19.4,7.78-30.32,6.47c-17.65-2.11-24.94-18.48-14.28-32.79
			c7.59-10.18,18.01-15.42,30.62-16.21c4.31-0.27,8.65-0.04,12.78-0.04c0.7-1.48,1.38-2.24,1.38-3c-0.2-16.6-0.52-33.21-0.71-49.81
			c-0.12-10.77-0.49-21.56,0.03-32.3c0.55-11.31,2.61-13.32,13.58-15.98c4.24-1.03,8.62-1.46,12.88-2.4
			c23.54-5.21,47.06-10.53,70.61-15.7c3.03-0.66,6.22-0.62,10.19-0.98c0.86,4.53,2.21,8.43,2.25,12.34
			c0.26,30.59,0.8,61.2,0.16,91.78c-0.36,17.05-7.25,31.62-22.16,41.44c-9.88,6.5-20.89,7.06-32,5.59
			c-7.89-1.04-13.71-8.66-13.79-16.83c-0.13-11.54,5.76-19.82,14.89-26.11c9.44-6.51,19.93-9.46,32.1-8.15
			C402.28,477.5,402.28,463.64,402.28,449.27z M317.15,516.06c-5.65,0-10.3-0.24-14.93,0.05c-11.92,0.73-21.77,5.5-29.2,15.14
			c-4.17,5.41-5.07,11.35-2.32,17.19c2.51,5.31,7.66,7.51,13.62,8.06c12.24,1.11,22.95-3.06,33.1-9.16
			c6.41-3.85,9.73-10.01,10.91-17.18c0.94-5.73,1.77-11.57,1.68-17.35c-0.23-14.86-1.17-29.7-1.49-44.56
			c-0.16-7.3,0.4-7.34,7.74-8.91c16.47-3.54,32.92-7.18,49.34-10.97c7.01-1.62,13.91-3.73,20.87-5.62
			c1.96,9.49,1.64,48.58-0.32,54.72c-12.5-2.4-17.87-1.96-27.68,3.02c-7.96,4.03-14.78,9.22-17.68,18.36
			c-3.55,11.2,1.48,19.21,13.09,20.26c20.3,1.84,38.03-10.7,42.65-30.98c3.5-15.37,4.22-30.96,3.19-46.83
			c-1.23-18.9-0.8-37.9-1.19-56.85c-0.16-7.78-1.23-8.56-8.88-6.92c-27.31,5.87-54.62,11.75-81.9,17.76
			c-3.03,0.67-5.86,2.25-8.61,3.35c-2.64,12.66-2.14,24.87-1.43,37.1C318.84,475.51,319.36,495.29,317.15,516.06z"/>
		<path d="M665.3,650.26c4.06-0.92,8.1-1.95,12.18-2.75c16.03-3.15,31.81-6.99,46.77-13.88c21.08-9.7,34.27-25.6,38.95-48.33
			c6.87-33.29-12.79-59.75-33.19-72.08c-16.17-9.76-33.68-15.66-52.35-18.38c-35.11-5.12-69.13-0.98-101.87,12.48
			c-20.71,8.52-37.61,21.82-49.03,41.65c-16.42,28.49-11.38,54.6,9.33,77.82c15.05,16.88,34.75,24.88,56.81,27.53
			c7.22,0.87,14.53,1.01,21.79,1.61c5.97,0.5,7.09,1.7,6.34,7.64c-0.69,5.45-1.48,10.97-3.07,16.19c-1.59,5.21-4.22,10.1-6.93,16.35
			c20.68-10.66,36.72-25.26,51.87-41.18c-1.49,8.66-7.48,14.25-13.3,19.55c-14.28,13.01-30.53,23.28-47.52,32.4
			c-2.08,1.12-4.18,2.65-6.09-1.26c11.68-12.16,20.71-26,20.5-44.62c-8.99-0.94-17.58-1.68-26.14-2.75
			c-32.31-4.06-57.17-19.48-71.58-49.17c-11.03-22.72-7.13-44.8,5.96-65.62c13.62-21.67,33.68-35.04,57.33-43.5
			c24.11-8.62,49.16-12.65,74.62-11.61c25.16,1.03,49.74,5.73,71.94,18.84c15.18,8.96,27.28,20.62,34.57,37.02
			c13.91,31.29,1.41,71.29-26.28,87.62c-19.71,11.62-41.16,17.26-63.46,20.56c-1.71,0.25-3.5,0.07-5.25,0.01
			c-0.86-0.03-1.72-0.23-2.57-0.35C665.52,651.45,665.41,650.85,665.3,650.26z"/>
		<path d="M1719.34,131.95c-0.79-2.12-1.59-4.25-2.55-6.83c1.09,0.15,2.14-0.03,2.53,0.39c9.32,10.11,14.28,21.86,12.92,35.78
			c-0.27,2.82-1.02,5.81-2.38,8.27c-5.81,10.56-26.14,21.03-42.1,10.7c-7.97-5.16-14.13-11.66-19.65-19.39
			c-16.75-23.44-34.13-46.42-51.23-69.61c-11.05-14.99-22.03-30.03-33.07-45.03c-2.71-3.68-5.15-7.2-10.13-8.91
			c-6.05-2.07-7.54-11.35-3.2-17.11c2.25-2.99,5.04-5.77,8.09-7.91c9.71-6.82,19.47-13.59,29.56-19.81
			c8.37-5.15,14.37-1.02,14.67,8.95c0.09,2.82,1.84,5.91,3.61,8.31c18.13,24.59,36.42,49.07,54.68,73.58
			c12.3,16.51,24.61,33,36.91,49.5C1718.45,132.53,1718.9,132.24,1719.34,131.95z M1598.93,18.84c6.28-3.28,12.55-6.55,18.85-9.84
			c0.19-3.51,0.36-6.5,0.56-10.12c-5.62,5.59-10.67,10.53-15.62,15.57c-1.36,1.38-2.43,3.04-3.63,4.56
			c-8.42,3.68-16.84,7.37-27.17,11.89c4.22,0.7,7.09,2.11,8.39,1.23C1586.6,27.83,1594.6,25.85,1598.93,18.84z M1582.53,37.08
			c22.89,30.56,44.88,61.22,67.97,91.76c8.2-15.67,21.02-23.81,36.31-30.19c-22.07-29.64-43.83-58.87-65.51-87.99
			C1608.22,19.57,1595.99,27.91,1582.53,37.08z M1656.78,137.34c4.4,6.16,8.95,12.57,13.55,18.95c1.36,1.89,2.7,3.86,4.36,5.47
			c5,4.85,9.67,10.25,15.35,14.14c11.01,7.54,27.95,3.35,35.5-7.76c3.62-5.32,3.28-11.1,2.55-16.86c-0.57-4.54-2.2-8.68-7.93-9.35
			c-1.07-0.12-1.98-2.01-2.87-3.15c-3.76-4.82-7.49-9.66-11.23-14.5c-3.99-5.16-7.99-10.33-11.24-14.54
			C1681.82,119.17,1669.67,127.98,1656.78,137.34z M1655.96,129.55c12.66-5.74,24.72-12.23,32.18-24.67
			C1673.69,108.15,1663.06,116.53,1655.96,129.55z M1610.2-1.3c-13.24,5.61-25.78,12.66-34.95,24.55
			C1589.77,19.48,1601.48,11.54,1610.2-1.3z"/>
		<path d="M1585.92,914.77c-1.06,1.38-2.13,2.76-3.19,4.15c-0.63-0.39-1.25-0.78-1.88-1.16c3.25-6.04,6.32-12.19,9.79-18.09
			c13.29-22.58,27.16-44.83,39.97-67.66c15.1-26.89,29.33-54.27,43.94-81.44c1.22-2.28,2.49-4.53,3.72-6.77
			c21.63,0.54,42.73,1.78,64.32,7.47c5.1,24.47,9.85,48.92,15.33,73.2c7.55,33.44,15.57,66.78,23.58,100.12
			c1.42,5.91,3.95,11.55,5.72,17.39c1.32,4.36,2.24,8.83,3.32,13.18c-18.35-4.01-36.08-7.89-53.81-11.75
			c-0.56-0.12-1.16-0.09-1.74-0.15c-13.12-1.3-20.67-8.59-24.25-21.19c-2.29-8.05-5.99-15.71-9.18-23.85
			c-9.02-1.4-18.15-2.81-27.52-4.26c-6.88,11.22-13.53,22.06-20.37,33.22c1.45,1.22,2.71,2.27,4.46,3.75
			c-1.32,0.42-2.36,1.11-3.29,0.98c-10.66-1.49-21.34-2.85-31.93-4.75c-9.98-1.79-19.87-4.1-29.76-6.34
			c-3.41-0.77-6.96-1.69-7.4-6.13c18.58,3.65,37.12,7.28,55.67,10.91c6.22,1.22,7.32,0.65,10.58-4.61
			c4.44-7.18,8.88-14.38,13.61-21.38c2.28-3.39,4.64-6.49,1.19-12.22c14.95,2.87,28.11,5.39,40.24,7.71
			c2.45,15.3,10.22,27.49,12.42,40.19c22.38,4.69,43.49,9.11,65.09,13.63c-3.01-9.62-6.2-18.38-8.48-27.37
			c-5.86-23.11-11.68-46.24-16.86-69.52c-5.68-25.54-12.36-50.89-15.33-77c-0.55-4.82-2.73-9.47-4.19-14.18
			c-1.64-5.27-4.95-8.15-10.77-8.29c-4.04-0.1-8.05-1.2-12.1-1.59c-12.11-1.18-24.18-3.73-36.18-1.59
			c-3.51,6.48-7.04,12.53-10.13,18.79c-20.9,42.37-45.59,82.62-69.51,123.29C1596.33,899.42,1590.97,907,1585.92,914.77z"/>
		<path d="M95.46,264.36c-8.4-3.18-16.42-5.97-24.24-9.23c-30.68-12.78-60.77-26.8-87.91-46.22c-15.9-11.38-27.7-26.04-35.23-44.52
			c-9.05-22.18,4.24-52.01,24.6-62.89c23.12-12.36,49.91-6.32,67.69,12.44c3.18,3.35,6.08,6.97,9.92,11.39
			c1.44-6.07,2.27-11.34,3.94-16.32c7.54-22.38,21.12-38.76,45.47-43.52c16.16-3.16,29.87,2.89,41.72,13.18
			c13.83,12.01,18.16,27.99,16.82,45.75c-1.28,17.02-6.51,33.1-13.15,48.62c-13.08,30.57-30.11,59.07-46.98,87.64
			C97.25,262.12,96.14,263.42,95.46,264.36z M54.41,136.95c-0.8,0.08-1.6,0.16-2.4,0.24c-0.99-1.31-1.97-2.63-2.97-3.94
			c-4.76-6.23-8.99-12.97-14.39-18.57C24.43,104.08,11.18,99.19-3.25,99.51c-14.26,0.31-26.56,6.2-35.63,17.74
			c-11.29,14.38-14.76,30.08-7.99,47.5c6.09,15.67,16.81,27.7,29.71,38.11c13.02,10.51,27.75,18.12,42.47,25.84
			c22.4,11.75,45.16,22.6,69.35,29.98c8.1-14.37,16.23-28.47,24.06-42.75c11.77-21.46,23.46-43.01,30.01-66.78
			c3.79-13.74,6.54-27.47,4.08-42.13c-4.63-27.5-42.57-51.14-71.62-29.04c-17.57,13.37-25.15,31.29-25.98,52.73
			C55.13,132.8,54.69,134.87,54.41,136.95z"/>
		<path d="M1605.49,493.56c3.23,53.78-41.65,107.71-104.26,110.51c-59.09,2.64-110.22-40.87-114.69-101.57
			c-4.68-63.54,42.67-115.81,105.73-118.51C1555.01,381.3,1608.46,433.86,1605.49,493.56z M1390.69,493.96
			c-0.73,54.66,44.51,105.48,105.47,105.54c55.82,0.05,106.55-43.34,105.91-107.07c-0.59-58.45-46.73-103.9-106.55-103.85
			C1436.23,388.62,1390.2,438.03,1390.69,493.96z"/>
		<path d="M1470.68,55.39c-8.82-0.97-17.5-1.93-26.18-2.88c-2.03-0.22-4.08-0.29-6.08-0.63c-7.36-1.25-11.86,1.73-15.21,8.45
			c-6.88,13.81-14.42,27.3-21.76,40.88c-1.52,2.81-3.04,5.72-5.11,8.09c-3.73,4.26-7.94,3.47-10.03-1.87
			c-2.22-5.68-3.92-11.57-5.94-17.33c-3.56-10.15-7.42-20.21-10.68-30.46c-1.61-5.05-4.1-7.01-9.59-8.12
			c-13.63-2.76-26.98-6.92-40.42-10.58c-4.2-1.14-8.54-2.05-12.47-3.83c-5.72-2.58-6.36-5.91-1.36-9.75
			c6.65-5.11,14.09-9.2,21.09-13.88c5.8-3.88,11.63-7.77,17.13-12.07c6.53-5.1,8.73-11.87,7-20.13c-2.09-9.95-3.87-19.97-5.52-30.01
			c-0.56-3.42-0.63-7-0.35-10.46c0.52-6.5,4.94-9.08,11.06-6.37c3.16,1.4,6.02,3.53,8.88,5.52c9.06,6.33,18.05,12.78,27.09,19.14
			c6.67,4.7,13.43,4.69,20.49,0.65c12.12-6.93,24.37-13.65,36.56-20.47c0.25-0.14,0.45-0.46,0.71-0.5c3.01-0.55,6.54-2.3,8.91-1.3
			c3.47,1.47,3.68,5.51,2.66,9.22c-1.61,5.89-2.96,11.85-4.7,17.7c-1.65,5.58-3.75,11.02-5.48,16.57
			c-4.23,13.62-2.02,20.7,9.03,29.99c9.59,8.05,19.24,16.05,28.63,24.33c3.11,2.75,7.84,5.32,6.16,10.6
			c-1.55,4.89-5.95,7.05-10.75,7.87C1479.89,54.54,1475.25,54.87,1470.68,55.39z M1350.39-61.84c0,5.26-0.51,9.64,0.1,13.86
			c1.41,9.79,3.62,19.47,5.03,29.26c1.42,9.88-1.01,18.59-9.75,24.5c-9.41,6.35-19.03,12.4-28.4,18.81
			c-3.19,2.18-7.49,3.25-9.29,7.96c2.14,0.83,3.94,1.72,5.84,2.23c15.16,4.09,30.29,8.3,45.53,12.08
			c6.69,1.66,11.61,4.83,14.01,11.48c3.85,10.66,7.8,21.28,11.67,31.93c1.94,5.34,3.81,10.71,6.29,17.71c2.81-4,4.87-6.38,6.33-9.09
			c7.32-13.57,14.69-27.13,21.62-40.9c4.15-8.24,9.89-12.7,19.43-10.94c1.71,0.32,3.45,0.58,5.19,0.71
			c11.59,0.88,23.17,1.84,34.77,2.51c4.85,0.28,9.19-1.15,12.31-6.54c-1.78-1.71-3.52-3.52-5.41-5.17
			c-10.94-9.6-22.01-19.06-32.85-28.77c-7.68-6.88-10.02-15.22-6.53-25.27c2.86-8.23,5.11-16.68,7.44-25.08
			c1.58-5.68,3.69-11.34,2.89-18.39c-2.75,1.35-4.82,2.26-6.78,3.35c-11.97,6.63-23.87,13.4-35.9,19.92
			c-7.74,4.2-15.61,4.39-23.08-0.76c-9.09-6.27-18.04-12.74-27.13-19.01C1359.99-58.05,1356.61-61.48,1350.39-61.84z"/>
		<path d="M326.42,1188.13c7.89-3.12,15.57-0.5,23.18,1.1c19.26,4.05,38.46,8.41,58.54,12.83c-3.21-10.15-6.63-19.63-9.18-29.33
			c-6.72-25.59-13.38-51.2-19.47-76.94c-5.56-23.48-10.49-47.11-15.4-70.74c-2.13-10.25-3.19-20.72-5.38-30.96
			c-1.76-8.19-4.33-16.22-6.89-24.21c-1.21-3.79-3.9-6.04-8.33-6.53c-8.37-0.94-16.64-2.79-25.02-3.68
			c-10.13-1.07-20.34-1.36-30.48-2.33c-5.56-0.53-8.38,1.97-10.79,6.68c-11.8,23.07-23.19,46.39-36.03,68.88
			c-23.83,41.73-48.54,82.95-72.97,124.34c-1.72,2.92-4.07,5.48-6.13,8.2c-0.57-0.3-1.15-0.6-1.72-0.91
			c1.28-2.94,2.28-6.05,3.89-8.79c9.73-16.58,19.7-33.03,29.4-49.63c14.68-25.13,29.58-50.14,43.7-75.59
			c14.24-25.68,27.64-51.83,41.67-78.25c25.46,0.9,51.09,3.49,76.83,8.92c-0.22,2.08-1.01,3.94-0.45,5.22
			c10.46,24.09,11.03,50.39,16.74,75.53c11.6,51.06,21.57,102.48,38.26,152.25c1.46,4.35,2.28,8.92,3.56,14.08
			c-29.71-6.84-58.63-13.5-87.54-20.16L326.42,1188.13z"/>
		<path d="M1025.16,1238.74c-4.63-1.23-6-4.7-7.24-8.37c-4.76-14.03-9.68-28.01-14.33-42.07c-2.18-6.6-5.64-10.04-13.26-11.45
			c-15.37-2.85-30.39-7.61-45.54-11.63c-1.96-0.52-3.96-1.13-5.74-2.06c-4.04-2.11-4.73-5.16-1.54-8.37
			c2.43-2.44,5.41-4.38,8.32-6.28c9.25-6.06,18.62-11.94,27.87-17.99c9.05-5.92,12.35-14.03,9.9-24.79
			c-2.06-9.05-3.37-18.28-4.88-27.45c-0.42-2.57-0.55-5.22-0.53-7.83c0.1-9.98,5.48-13.11,14.18-7.78
			c6.18,3.78,11.82,8.47,17.75,12.67c4.74,3.36,9.49,6.7,14.35,9.88c7.23,4.72,14.64,4.94,22.21,0.65
			c11.12-6.31,22.27-12.59,33.46-18.77c3.69-2.03,7.43-6.18,11.85-3.38c4.91,3.12,2.82,8.4,1.66,12.82
			c-2.13,8.13-4.59,16.17-6.93,24.25c-0.97,3.34-1.87,6.72-3.03,10c-3.46,9.78-0.62,17.48,7.14,24.04
			c10.88,9.2,21.46,18.76,32.26,28.05c2.95,2.53,6.33,4.97,5.02,9.29c-1.36,4.5-5.18,6.52-9.68,7.83
			c-12.24,3.57-24.29-0.13-36.42-0.51c-3.77-0.12-7.57-0.65-11.26-1.45c-6.02-1.3-10.08,0.77-12.91,6.13
			c-7.33,13.88-14.71,27.72-22.21,41.5C1032.91,1230.65,1030.9,1236.36,1025.16,1238.74z M1090.22,1067.24
			c-2.9,1.38-4.94,2.24-6.86,3.29c-12.24,6.73-24.48,13.47-36.66,20.29c-7.61,4.26-15.08,3.69-22.44-0.45
			c-3.04-1.71-5.99-3.62-8.81-5.67c-7.29-5.31-14.4-10.88-21.76-16.09c-3.13-2.21-6.46-5.4-11.47-1.49
			c0.61,4.69,1.13,9.56,1.91,14.38c1.52,9.46,3.64,18.85,4.64,28.35c0.88,8.43-1.14,16.25-8.86,21.43
			c-8.93,5.99-17.85,12.01-26.77,18.02c-4.02,2.7-8.04,5.4-13.55,9.1c5.43,1.97,9.1,3.63,12.95,4.64
			c12.66,3.32,25.37,6.42,38.07,9.57c8.78,2.18,15.23,6.8,17.99,15.93c2.36,7.79,5.17,15.44,7.83,23.13
			c2.54,7.33,5.15,14.64,8.25,23.42c3.02-5.09,5.21-8.5,7.13-12.06c7.33-13.57,14.76-27.09,21.8-40.82
			c3.77-7.35,9.68-9.66,17.3-8.78c4.32,0.5,8.58,1.86,12.9,2.06c10.43,0.5,20.88,0.69,31.32,0.72c3.99,0.01,7.35-1.65,8.65-6.64
			c-3.29-2.95-6.7-6.08-10.2-9.12c-8.79-7.64-17.59-15.27-26.43-22.85c-8.39-7.18-11.27-15.93-7.98-26.62
			c2.4-7.78,4.53-15.64,7.04-23.38C1088.23,1081.35,1090.06,1075.1,1090.22,1067.24z"/>
		<path d="M697.55,661.43c5.2-1.36,9-2.4,12.83-3.35c31.77-7.87,55.78-25.68,69.75-55.63c6.32-13.55,7.42-27.98,3.96-42.67
			c-1.18-5.03-2.01-10.13-3.17-16.07c3.12,0,5.69-0.48,8.02,0.08c19.86,4.75,38.1,12.63,52.33,27.95c16.71,18,19.8,46.43,6.87,66.24
			c-4.81,7.36-11.06,13.47-19.05,17.54c-1.79,0.91-3.49,2.01-5.53,3.19c7.86,17.7,25.32,24.96,39.65,37.19
			c-11.54,1.51-21.53,0.23-31.44-1.72c-15.68-3.08-31.43-5.94-46.11-12.78c-1.84-0.86-4.62-0.59-6.67,0.07
			c-16.59,5.35-33.28,4.98-49.94,0.89c-9.08-2.23-17.71-5.88-24.64-12.46C702.19,667.78,700.5,665.11,697.55,661.43z M846.39,692.05
			c0.21-0.74,0.42-1.49,0.62-2.23c-10.79-8.62-22.47-16.43-28.25-30.57c2.64-2.23,5.09-4.19,7.42-6.28
			c5.61-5.04,12.11-9.43,16.55-15.35c15.4-20.53,10.51-49.36-8.84-67.1c-9.85-9.03-21.65-14.67-34.13-18.96
			c-4.26-1.46-8.66-2.49-12.61-3.61c-0.79,1.04-1.15,1.31-1.11,1.49c0.44,1.96,0.86,3.92,1.43,5.84
			c3.42,11.38,3.94,22.95,1.21,34.45c-8.18,34.49-31.44,55.32-62.99,68.28c-6.26,2.57-12.91,4.2-20.65,6.66
			c3.37,2.53,5.71,4.66,8.37,6.22c15.44,9.04,32.2,10.94,49.69,9.09c10.61-1.12,21.17-3.89,31.88,0.23
			c6.75,2.6,13.78,4.65,20.85,6.21C825.94,688.66,836.2,690.21,846.39,692.05z"/>
		<path d="M1922.17,628.02c-1.98,0.35-3.56,0.63-6.25,1.1c6.27,3.18,10.28,7.11,11.8,13.2c2.33,9.33-1.17,16.31-10.34,19.08
			c-3.85,1.16-8,1.61-12.04,1.75c-7.28,0.27-14.58-0.13-21.86,0.11c-6.36,0.21-12.73,0.61-19.03,1.44
			c-14.63,1.91-22.92-7.38-19.23-21.7c1.46-5.68,5.28-9.17,10.51-10.65c5.52-1.56,11.31-2.15,17.96-3.34c0-5.12-0.01-10.58,0-16.05
			c0.01-4.37-0.14-8.76,0.13-13.11c0.38-6.13,1.35-7.22,7.3-7.2c9.61,0.02,19.22,0.46,28.83,0.66c2.93,0.06,6.32,1.58,9.19-3.21
			c-15.47,0-30.01,0-45.13,0c0-22.31,0-43.66,0-65.67c16.29,0.45,31.99-1.92,47.67,2.19c0.32,1.74,0.77,3.12,0.79,4.51
			c0.24,14.83,0.55,29.65,0.52,44.48c-0.01,4.58-1.01,9.16-1.58,13.74c-0.14,1.14-0.57,2.27-0.54,3.39
			C1921.26,604.34,1921.72,615.93,1922.17,628.02z M1878.49,529.06c0,19.51,0,37.94,0,56.46c14.2,0,27.44,0,40.62,0
			c-0.67-19.27-1.32-37.95-1.97-56.46C1903.74,529.06,1891.31,529.06,1878.49,529.06z M1893.38,658.34
			c0.02,0.28,0.04,0.56,0.06,0.84c6.97-0.52,13.98-0.75,20.89-1.66c4.43-0.58,8.44-2.47,9.41-7.73c1.45-7.86-2.57-13.87-10.47-15.26
			c-3.15-0.55-6.38-1.06-9.56-0.98c-13.41,0.34-26.81,0.86-40.21,1.46c-1.98,0.09-4,0.8-5.88,1.52c-7.33,2.79-9.75,7.24-8.39,15.12
			c1.13,6.53,4.24,8.79,12.81,8.46C1872.5,659.71,1882.93,658.94,1893.38,658.34z M1917.39,597.5c-13.4,0-25.75,0-38.92,0
			c-0.42,9.03-0.81,17.59-1.25,27.11c13.86,0,26.96,0,40.17,0C1917.39,615.54,1917.39,606.89,1917.39,597.5z"/>
		<path d="M1356.95,807.05c5.38-2.7,8.77-0.89,12.26,0.6c8.54,3.67,17.18,7.1,25.66,10.91c7.05,3.17,13.06,1.61,18.45-3.38
			c5.55-5.13,10.92-10.47,16.47-15.59c2.34-2.16,4.75-4.4,7.51-5.9c4.57-2.48,7.9-1.07,9.41,3.94c0.82,2.71,0.93,5.72,0.86,8.58
			c-0.19,7.56-0.61,15.12-1.02,22.68c-0.45,8.44,2.71,14.52,10.68,18.17c8.2,3.76,16.15,8.05,24.22,12.09
			c1.56,0.78,3.24,1.34,4.74,2.21c5.66,3.29,5.99,7.33,0.26,10.17c-5.94,2.94-12.37,4.9-18.65,7.12c-3.56,1.26-7.18,2.41-10.87,3.2
			c-9.19,1.97-12.81,8.37-13.79,16.89c-1.2,10.39-2.29,20.78-3.35,31.18c-0.87,8.48-6.49,11.59-13.05,6.13
			c-4.76-3.96-8.28-9.63-11.64-15c-3.38-5.4-6.02-11.28-8.7-17.08c-2.27-4.91-5.75-6.93-11.14-6.26
			c-10.97,1.37-21.97,2.56-32.96,3.76c-3.47,0.38-6.98,0.89-10.44,0.7c-6.77-0.36-8.39-3.53-4.48-8.93
			c6.31-8.73,12.92-17.24,19.39-25.85c1.39-1.85,2.54-3.91,4.07-5.63c2.7-3.03,2.48-5.79,0.97-9.53
			c-4.76-11.85-9.01-23.91-13.23-35.97C1357.57,813.36,1357.47,810.14,1356.95,807.05z M1442.77,798.58
			c-0.75-0.44-1.5-0.87-2.26-1.31c-2.72,1.98-5.63,3.74-8.1,5.99c-4.31,3.92-8.5,7.99-12.46,12.26
			c-7.98,8.62-17.19,11.57-28.33,6.86c-2.68-1.13-5.41-2.16-8.08-3.32c-6.73-2.9-13.44-5.84-21.36-9.29
			c0.62,3.33,0.74,5.04,1.27,6.61c3.48,10.19,6.44,20.61,10.79,30.42c3.56,8.02,2.28,14.7-2.44,21.25
			c-5.1,7.07-10.52,13.92-15.73,20.92c-1.8,2.42-3.39,5-5.82,8.63c3.79,0,5.83,0.19,7.82-0.03c11.85-1.29,23.72-2.5,35.53-4.07
			c8.84-1.17,12.16,0.16,16.42,7.88c1.83,3.32,3.24,6.87,5.15,10.14c3.52,6.01,7.19,11.93,10.95,17.79
			c1.75,2.72,4.03,4.87,8.11,4.15c0.38-1.58,0.84-2.93,1.02-4.32c1.38-10.98,2.68-21.96,4.05-32.94c1.1-8.81,4.87-15.4,14.21-17.75
			c4.78-1.2,9.41-2.98,14.09-4.56c5.64-1.9,11.25-3.87,16.87-5.81c0.02-0.66,0.04-1.31,0.06-1.97c-2.7-1.5-5.35-3.1-8.11-4.49
			c-7.27-3.68-14.59-7.28-21.9-10.89c-8.37-4.13-12.83-10.75-12.63-20.18c0.15-6.99,0.61-13.97,0.84-20.96
			C1442.86,805.93,1442.77,802.25,1442.77,798.58z"/>
		<path d="M1814.62,579.99c-0.4,4.11-0.79,8.06-1.15,11.73c-12.17,2.95-27.31-9.31-26.5-25.13c0.7-13.62,4.8-26.42,17.3-33.83
			c0-26.21,0-52.11,0-79.19c8.95-0.61,17.75-0.73,27.33,0.32c2.04,22.99,2.44,45.48-0.81,68.03c-4.16-21.32-0.94-43.05-2.89-64.7
			c-6.51,0-12.5,0-19.53,0c-1.69,22.74,0.48,45.07-1.44,68.11c3.06,0.28,5.54,0.59,8.03,0.71c4.66,0.21,9.35,0.09,13.98,0.55
			c2.18,0.22,5.53-0.26,4.72,4.3c-0.18,1.01,3.26,2.67,5.03,4.03c10.85,8.35,15.74,19.52,14,32.92
			c-1.58,12.21-9.76,19.83-20.97,26.22c-1.75-5.5-3.21-10.07-4.76-14.94c6.48-5.16,12.06-10.84,11.29-19.6
			c-0.4-4.61-1.8-9.08-5.85-12.28c-7.5-5.93-22.71-3.56-28.3,4.59C1797.89,560.88,1801.99,572.83,1814.62,579.99z M1808.49,588.77
			c1.03-5.27,1.03-5.27-2.88-8.7c-13.75-12.07-11.18-32.72,5.16-38.28c4.99-1.7,10.91-1.86,16.22-1.18
			c9.04,1.15,14.74,8.28,15.5,17.39c0.64,7.75-1.48,14.39-7.42,19.63c-3.14,2.77-4.13,5.56,0.04,8.29
			c13.84-9.24,17.31-23.23,9.49-37.91c-6.58-12.35-22.27-18.15-35.35-12.56c-13.01,5.56-16.71,17.42-17.71,29.91
			C1790.62,576.84,1797.02,584.48,1808.49,588.77z"/>
		<path d="M1437,1192.37c2.11,7.44,3.87,13.66,6.16,21.77c-14.78-7.23-27.16-14.09-34.63-27.06c-6.57-11.41-5.11-23.08,0.72-34.2
			c6.28-11.98,15.67-21.42,25.21-30.98c8.43-8.44,16.2-7.1,25.12-2.91c15.58,7.32,27.27,18.42,34.22,36.33
			c-8.67-4.97-15.46-11.14-26.2-10.77c16.25,19.67,30.95,38.99,37.56,64.48C1480.94,1208.56,1459.25,1202.33,1437,1192.37z
			 M1459.02,1141.18c0.19-0.66,0.37-1.32,0.56-1.98c6.4,0.39,12.8,0.78,20.37,1.25c-7.25-8.73-15.17-14.81-24.88-18.42
			c-10.06-3.74-13.42-2.73-20.57,5.43c-2.49,2.85-5.34,5.42-7.63,8.41c-4.58,5.99-9.57,11.82-13.11,18.4
			c-3.66,6.8-6.5,14.06-4.28,22.48c3.59,13.56,13.25,21.05,25.91,28.18c-1.52-10.16-7.97-16.96-9.75-25.73
			c10.9,7.86,22.32,14.24,35.05,17.74c12.35,3.4,24.72,7.11,38.41,7.17c-4.15-12.9-10.12-23.55-17.23-33.46
			C1474.63,1160.53,1466.67,1150.97,1459.02,1141.18z"/>
		<path d="M272.51,642.54c-8.08,19.66-7.27,40.68-19.98,57.04c5.3-20.64,10.6-41.28,15.93-62.05c14.17,5.83,20.71,22.43,17.62,42.74
			c5.15-3.53,7.58-8.16,7.81-15.56c0.36-11.19-4.18-20.9-9.24-30.52c-3.64-6.92-6.99-14.01-9.97-21.23
			c-1.57-3.8-4.36-4.14-8.68-4.61c-1.57,6.97-3.14,13.94-4.71,20.91c-4.22,18.71-8.46,37.41-12.63,56.13
			c-0.7,3.12-2.25,4.27-5.56,3.9c-5.19-0.58-10.46-1.14-15.64-0.81c-3.67,0.23-7.53,1.41-10.8,3.11c-9.03,4.69-9.2,14.08-0.4,19.13
			c9.81,5.63,19.5,4.8,28.71-1.61c2.13-1.48,4.04-3.29,7.25-5.93c-0.79,2.69-0.87,4.3-1.66,5.43c-9.05,13.01-31.03,14.14-41.45,2.21
			c-6.63-7.59-4.7-17.38,4.72-22.8c6.46-3.72,13.52-5.13,20.97-4.46c2.88,0.26,5.76,0.44,9.2,0.71
			c7.44-26.76,10.9-54.23,19.61-80.02c11.77,0.04,12.31,0.77,16.03,10.23c2.44,6.2,5.75,12.1,9.12,17.88
			c6.32,10.85,10.07,22.27,9,34.97c-1.11,13.14-7.83,20.5-20.97,22.24c1.87-5.28,4.5-10.1,5.13-15.17
			c0.67-5.36,0.31-11.21-1.2-16.37C279.23,652.91,275.73,648.4,272.51,642.54z"/>
		<path d="M242.7,290.64c10.34,9.23,19.23,17.12,28.07,25.07c3.72,3.34,3.88,4.69,0.42,8.11c-13.68,13.53-28.38,25.83-44.39,36.03
			c-5.83-0.67-6.82-4.08-5.6-8.65c5.1-19.09,9.62-38.36,15.67-57.15c2.8-8.69,8.25-16.65,13.18-24.51
			c12.37-19.73,25.01-39.29,37.79-58.76c3.46-5.27,7.84-9.94,12.7-14.27c-4.2,11.6-12.23,20.83-18.67,31.01
			c-6.68,10.58-13.5,21.07-20.1,31.7C255.22,269.81,248.85,280.5,242.7,290.64z M266.65,318.24c-8.02-9.27-18.09-17.17-26.18-20.55
			c-3.03,10.78-6.05,21.5-8.97,31.88c5.01,3.02,8.94,5.38,13.1,7.89C251.91,331.08,259.28,324.66,266.65,318.24z M227.07,348.33
			c0.64,0.38,1.29,0.75,1.93,1.13c4.02-2.93,8.04-5.87,13.07-9.54c-4.98-1.78-8.59-3.06-12.97-4.63
			C228.29,340.52,227.68,344.42,227.07,348.33z"/>
		<path d="M299,192.24c4.65-11.11,7.58-21.33,16.83-28.21c7.63-5.68,20.33-6.5,26.98-1.82c9.43,6.65,13.72,16.57,9.88,27.41
			c-2.98,8.42-7.71,16.21-11.54,24.34c-1.32,2.81-2,5.93-3.42,8.67c-2.63,5.08-5.18,10.27-8.47,14.92
			c-15.65,22.06-31.5,43.97-47.38,65.86c-2.1,2.9-4.8,5.36-7.22,8.03c-0.62-0.45-1.24-0.91-1.86-1.36
			c2.37-3.78,4.38-7.84,7.16-11.29c17.35-21.57,33.3-44.12,47.83-67.68c0.92-1.49,1.91-2.95,2.63-4.53
			c2.24-4.92,1.69-5.71-3.18-8.82c-7.59-4.85-15-9.99-22.43-15.09c-0.81-0.56-1.22-1.69-2.85-4.05c7.65,0.58,11.53,4.85,15.99,7.93
			c4.53,3.13,9.13,6.18,14.26,9.64c1.36-2.05,2.55-3.85,4.16-6.27c-1.05-0.66-1.8-1.1-2.51-1.6c-6.44-4.47-12.76-9.14-19.35-13.37
			C310.11,192.1,306.09,186.62,299,192.24z M306.99,184.33c6.15,4.39,11.29,8.17,16.55,11.77c4.07,2.79,8.23,5.48,12.48,7.99
			c2.61,1.54,5.23,1.17,6.7-1.72c3.29-6.49,6.5-13.01,6.33-20.61c-0.31-13.28-12.67-21.66-25.07-16.81
			C314.88,168.5,309.86,175.6,306.99,184.33z"/>
		<path d="M359.24,56.68c-0.2,1.85-0.41,3.78-0.89,8.13c-2.68-9.74-9.73-5.27-14.73-6.43c0.06-0.61,0.11-1.22,0.17-1.84
			c2.44-1.24,4.89-2.48,7.82-3.97c0.66-7.33-3.33-14.96-0.09-24.21c5.44,7.79,0.94,17.15,7.25,23.87c13.1-2.87,26.65-5.84,40.2-8.79
			c13.93-3.03,27.9-5.91,41.8-9.06c13.59-3.08,27.12-6.47,40.7-9.63c13.6-3.16,27.22-6.26,40.85-9.28
			c13.91-3.08,27.79-6.34,41.79-8.92c13.37-2.47,26.46-7.1,40.43-5.87c-19.79,6.46-40.25,9.9-60.44,14.47
			c-20.7,4.68-41.38,9.48-62.08,14.2c-20.4,4.65-40.8,9.34-61.23,13.89C400.41,47.77,379.97,52.16,359.24,56.68z"/>
		<path d="M674.24,334.88c-15.56,5.77-30.66,12.24-43.72,22.57c-12.89,10.2-23.66,22.36-32.87,35.95
			c-9.3,13.72-17.53,28-23.59,43.81c16.44-10.15,29.54-25.27,48.45-31.36c-20.01,16.31-41.22,31.06-60.32,50.19
			c3.3-12.66-3.7-22.8-5.42-33.96c-0.6-3.89-1.41-7.76-1.13-11.89c6.31,8.18,6.37,18.65,11.21,28.87c1.66-3.01,2.96-5.07,3.97-7.25
			c10.68-23.11,23.57-44.79,41.13-63.44c14.85-15.77,32.37-27.47,53.08-34.18C669.07,332.89,669.05,332.84,674.24,334.88z"/>
		<path d="M404.99,1061.62c8.05,3.1,15,2.29,23.06,0.61c0-7.89,0-15.62,0-23.89c11.09,0,21.04,0,31.74,0
			c-0.47,6.89-0.88,12.85-1.36,19.89c4.98,0.22,9.78,0.3,14.55,0.69c4.9,0.4,9.77,1.09,14.18,1.61c0,8.22,0,15.87,0,22.99
			c-9.43,2.87-18.81-0.15-26.86,3.99c-0.7,8.34-1.35,16.06-2.09,24.8c-10.14,0.86-19.24,1.64-28.6,2.43
			c-1-7.92-1.87-14.79-2.86-22.68c-6.78,0.56-13.23,1.09-19.81,1.63C404.01,1083.08,403.58,1072.85,404.99,1061.62z M432.57,1065.48
			c-3.72,0.75-7.63,1.8-11.62,2.29c-12.3,1.52-12.34,1.44-12.05,13.9c0.05,2.22,0.45,4.43,0.66,6.46c7.52,0,14.37,0,21.88,0
			c0.4,6.61,0.82,13.47,1.26,20.76c7.66,0,14.71,0,22.54,0c0-4.75-0.06-8.78,0.02-12.81c0.09-4.27,0.31-8.53,0.52-13.88
			c9.35-0.55,17.93-1.05,27.04-1.58c0-5.34,0-10.69,0-16.92c-9.22,0-18.1,0-27.86,0c0-7.72,0-14.58,0-22.49
			c-8.3,0.73-15.61,1.37-22.38,1.96C432.57,1051.32,432.57,1058.19,432.57,1065.48z"/>
		<path d="M1799.96,859.34c-5.29,0.42-10.4,0.82-15.92,1.26c-1.63-8.84-4.2-17.45-1.62-25.83c6.18,0,11.73,0,17.77,0
			c0.57-7.17,1.09-13.69,1.63-20.53c9.19-0.2,17.54-2.31,25.94,1.64c0,4.88,0,9.46,0,14.58c7.74,0.82,15.12,1.6,22.92,2.43
			c0,6.88,0,13.15,0,20.17c-7.18,0.51-14.01,0.99-21.43,1.52c-0.64,5.6-1.49,10.7-1.74,15.83c-0.21,4.43-2.34,6.21-6.51,6.42
			c-5.96,0.31-11.91,0.77-18.36,1.21C1801.7,871.42,1800.88,865.75,1799.96,859.34z M1786.77,855.54c6.67,0,12.31,0,18.58,0
			c0,4.55-0.16,8.31,0.04,12.06c0.24,4.54,2.06,6.3,6.58,5.93c4.01-0.33,7.97-1.31,12.95-2.18c0-6.68,0-13.22,0-20.48
			c7.51-0.65,14.03-1.2,20.89-1.79c0-3.87,0-8.08,0-13.14c-7.57,0-14.71,0-22.43,0c-0.28-6.42-0.53-12.04-0.79-18.17
			c-6.08,0.34-11.19,0.62-16.75,0.93c0,6.69,0,12.61,0,18.8c-6.48,1.12-12.68,2.18-19.07,3.28
			C1786.77,845.74,1786.77,849.98,1786.77,855.54z"/>
		<path d="M1167.12,526.72c-14.39-5.5-27.52-10.52-41.48-15.85c6.05-3.82,10.88-0.12,15.71,1.16c5.25,1.39,10.35,3.36,17.39,5.7
			c-10.74-11.55-19.91-21.96-29.69-31.78c-11.5-11.55-23.15-23-35.43-33.68c-8.52-7.41-17.82-14.13-27.53-19.88
			c-5.97-3.54-13.37-4.68-20.57-7.04c0.35-2.8,3.09-2.54,5.1-2.52c9.15,0.08,17.09,4.14,24.11,9.26
			c11.26,8.23,22.65,16.56,32.54,26.31c18.64,18.38,36.25,37.81,54.32,56.78c0.32,0.33,1.03,0.29,2.62,0.69
			c1.85-10.76-0.12-21.66,1.82-32.27C1171.75,497.74,1169.81,511.98,1167.12,526.72z"/>
		<path d="M326.43,1188.11c-6-15.07-12.11-30.09-17.9-45.24c-1.23-3.22-3.06-4.54-6.27-4.96c-9.49-1.23-18.96-2.62-29.11-4.05
			c-8.3,13.3-16.71,26.78-25.37,40.64c1.98,1.76,3.51,3.13,5.05,4.5c-24.61-2.04-48.64-5.89-72.45-11.07
			c-3.93-0.86-7.7-2.48-11.48-3.92c-0.52-0.2-0.68-1.36-1.37-2.9c2.18,0.11,3.76-0.01,5.26,0.28c21.68,4.17,43.36,8.4,65.04,12.61
			c3.16,0.61,5.45-0.14,7.3-3.19c6.93-11.46,13.93-22.89,21.35-34.03c2.14-3.22,1.12-5.6-2.35-9.66c18.52,3.26,34.43,6.06,49.9,8.78
			c0,3.14-0.68,5.97,0.12,8.3c3.1,9.08,6.85,17.93,9.98,27.01c1.87,5.41,4.4,10.89,2.3,16.91
			C326.42,1188.13,326.43,1188.11,326.43,1188.11z"/>
		<path d="M1131.83,29.77c15.26-7.35,30.47-14.68,46.32-22.32c1.18,8.43-2.18,16.61-2.81,25c-0.64,8.48-1.93,16.9-3.82,25.28
			c-2.48-9.35-1.58-18.65,0.09-30.02c-34.97,30.38-66.95,60.83-89.41,100.05c-4.49-2.33-2.32-5.01-1.13-6.82
			c5.73-8.76,11.42-17.57,17.71-25.93c18.48-24.58,41.1-45.2,63.95-65.55c2.16-1.93,4.72-3.41,7.1-5.09
			c2.98-2.1,4.12-4.75,2.48-8.47c-13.17,5.14-24.87,13.82-39.21,15.82C1132.87,31.75,1132.5,30.83,1131.83,29.77z"/>
		<path d="M2001.65,264.13c-47.15-0.42-94.31-0.83-141.46-1.3c-0.33,0-0.65-0.88-1.27-1.79c4.47-3.95,9.82-1.47,14.61-1.9
			c4.9-0.45,9.86-0.1,15.84-0.1c0-6.42,0-12.35,0-18.98c4.44-0.57,7.92-1.02,12.28-1.58c0,7.2,0,13.19,0,20.16
			c17.68,1.49,34.67,0.65,52.13,0.77c-0.54-7.25-1-13.49-1.46-19.66c4.88-3.43,9.33-1.96,14.96-0.67c0.6,6.61,1.22,13.4,1.93,21.3
			c7.87,0,15.66-0.12,23.45,0.05c3.34,0.07,7.27-0.55,8.69,3.97L2001.65,264.13z M1966.28,259.72c-0.59-3.26-1.02-6.04-1.59-8.79
			c-0.57-2.75-1.28-5.46-1.88-8c-4.04-1.21-6.17-0.04-5.73,3.9c0.49,4.42,1.39,8.8,2.16,13.47
			C1962.19,260.06,1964.08,259.9,1966.28,259.72z M1896.15,242.81c-3.58,4.68-2.09,9.28-1.66,13.64c0.09,0.92,1.68,1.7,3.31,3.23
			C1899.34,253.29,1899.25,248.27,1896.15,242.81z"/>
		<path d="M815.34,133.89c-4.51-0.76-4.78-4.44-6.31-6.98c-10.37-17.16-20.28-34.62-31.25-51.38c-6.63-10.13-14.9-19.19-23.32-29.85
			c-2.79,7.5-0.18,14.61-5.44,21.29c-2.4-7.19,0.05-13.2-0.85-18.94c-0.92-5.81-1.39-11.78-3.08-17.37
			c-1.73-5.72-4.68-11.08-7.29-17.04c21.25,13.72,42.04,27.15,62.97,40.67c-6.81,0.29-7.49,0.12-26.11-11.08
			c-8.2-4.93-16.13-10.3-24.55-15.71c-0.36,5.66,1.47,9.64,5.2,13.5c23.08,23.83,40.75,51.5,56.18,80.68
			C813.39,125.29,816.2,128.86,815.34,133.89z"/>
		<path d="M2001.34,264.4c2.8-0.71,4.69,0.02,4.53,3.25c-0.19,4.07-0.9,8.13-0.85,12.19c0.29,24.17,0.72,48.35,1.15,72.52
			c0.02,1.39,0.51,2.77,0.77,4.1c-17.37,8.61-133.8,13.58-150.27,6.44c1.2-3.54,4.13-2.38,6.52-2.34
			c18.63,0.27,37.27,0.86,55.9,0.86c27.93,0,55.66-2.67,83.72-6.65c-1.76-30.43-4.44-60.52-1.16-90.65
			C2001.65,264.13,2001.34,264.4,2001.34,264.4z"/>
		<path d="M1981.4,329.98c0.28,5.12,0.49,9.04,0.69,12.59c-21.81,0-42.64,0-63.47,0c-9.03,0-18.07,0.1-27.1-0.05
			c-5.44-0.09-6.71-1.55-6.72-6.69c-0.01-4.92,1.53-6.78,6.78-6.95c7.57-0.25,15.15-0.08,22.72-0.08c17.19,0,34.38-0.08,51.57,0.05
			C1970.77,328.89,1975.66,329.54,1981.4,329.98z M1977.2,337.8c0.72-4.16-1.53-5.27-5.51-5.25c-25.63,0.12-51.26,0.08-76.9,0.16
			c-1.4,0-2.96,0.2-4.14,0.86c-0.71,0.4-0.82,1.87-1.73,4.23C1918.74,337.8,1947.64,337.8,1977.2,337.8z"/>
		<path d="M1142.93,182.68c9.12-3.04,18.57-3.23,28.07-2.37c23.82,2.17,47.1,7.09,70.02,13.86c26.25,7.75,51.98,16.95,76.79,28.54
			c3.85,1.8,7.37,4.3,11.04,6.48c-0.25,0.64-0.5,1.27-0.75,1.91c-2.23-0.67-4.59-1.07-6.68-2.04
			c-34.94-16.17-71.09-28.82-108.57-37.63c-16.74-3.94-33.72-6.34-50.92-6.84c-4.32-0.13-8.66,0.86-13.01,1.11
			c-2.03,0.12-4.09-0.29-6.13-0.45C1142.83,184.4,1142.88,183.54,1142.93,182.68z"/>
		<path d="M326.68,1088.25c-20.5-7.99-41.02-7.15-59.48-15.9c8.37,0.82,11.76-4.35,15.21-10.35c6.37-11.07,13.25-21.85,20.18-32.59
			c2.62-4.06,5.98-7.64,10.4-13.18C318.66,1040.56,321.93,1063.21,326.68,1088.25z M320.81,1081.27
			c-4.41-18.44-4.95-36.02-10.16-52.64c-0.72-0.11-1.44-0.23-2.16-0.34c-8.92,14.48-17.84,28.96-27.34,44.39
			C294.41,1075.55,306.73,1078.22,320.81,1081.27z"/>
		<path d="M467.58,221.39c7.73-0.79,15.44-2.02,23.18-2.29c46.65-1.61,93.02,2.52,139.35,7.23c0.62,0.06,1.12,1.18,1.86,2
			c-2.74,3.57-6.5,2.17-9.65,1.91c-13.9-1.14-27.78-2.62-41.67-3.96c-32.23-3.11-64.56-2.82-96.88-2.41
			C478.36,223.94,472.87,226.14,467.58,221.39z"/>
		<path d="M568.42,745.51c-1.19,20.39,8.25,35.89,21.49,49.93c-8.22-2.79-13.02-9.45-18.69-16.36c-1.42,4.52-2.58,8.19-3.73,11.86
			c-4-0.9-3.25-3.39-3.04-5.58c0.53-5.48,1.42-10.95,1.55-16.44c0.07-3.22-1.03-6.47-1.95-11.64c-3.03,3.46-4.61,5.41-6.33,7.22
			c-7.19,7.57-14.3,15.21-21.7,22.57c-1.81,1.8-4.62,2.6-8.64,4.75c1.8-7.61,7.57-8.37,10.49-11.88c3.33-4.02,7.2-7.58,10.66-11.5
			c3.27-3.71,6.37-7.56,9.41-11.45c2.95-3.77,5.75-7.67,8.61-11.51C567.16,745.48,567.79,745.49,568.42,745.51z"/>
		<path d="M444.22,224.35c9.9-11.13,44.84-24.73,74.27-29.42c-3.34,3.98-6.51,5.58-14.04,7.96c-12.75,4.02-25.49,8.1-38.11,12.52
			c-4.59,1.61-8.81,4.26-14.5,7.08c13.97,8.13,28.33,11.04,42.64,15.15c-1.04,1.59-1.57,2.92-1.93,2.88
			C475.58,238.49,459.95,232.48,444.22,224.35z"/>
		<path d="M1289.38,235.32c20.57-0.37,40.17,6.64,61.05,9.72c-3.91-13.48-12.63-24.01-14.94-37.86
			c5.04,3.91,17.71,28.31,23.56,44.83c-12.38-2.65-24.05-5.29-35.78-7.62c-11.44-2.27-22.95-4.23-34.43-6.33
			C1289.02,237.15,1289.2,236.23,1289.38,235.32z"/>
		<path d="M1858.04,265.96c-0.99,29.18-1.98,58.36-2.97,87.57c-3.41,0.86-3.77-1.18-3.75-3.3c0.17-16.87,0.15-33.75,0.71-50.61
			c0.32-9.56,1.54-19.1,2.52-28.63c0.19-1.82,1.16-3.56,1.76-5.33C1856.89,265.76,1857.47,265.86,1858.04,265.96z"/>
		<path d="M1973.21,279.85c-4.08,0.46-7.12,0.61-10.08,1.16c-8.35,1.57-12.56,7.85-10.26,15.06c1.56,4.89,5.09,7.28,10.64,7.19
			c6.32-0.1,12.92-3.63,12.99-8.14c0.06-3.62-2.23-7.28-3.39-10.67c6.03,0.18,9.9,6.83,7.19,13.66
			c-2.47,6.24-12.93,11.07-20.78,9.58c-6.74-1.28-12.08-8.8-11.57-16.44c0.41-6.11,3.7-10.24,9.14-12.8
			C1963.32,275.54,1967.36,275.68,1973.21,279.85z"/>
		<path d="M1080.08,918.07c-3.13,3.69-6.13,7.5-9.44,11.02c-3.11,3.3-6.57,6.27-10.95,10.41c-0.15-2.7-0.68-4.11-0.2-4.69
			c8.3-9.93,16.72-19.76,26.44-31.18c-1.65,17.91,6.59,32.04,9.7,47.49c-7.31-9.69-11.94-20.49-13.7-32.53
			C1081.32,918.41,1080.7,918.24,1080.08,918.07z"/>
		<path d="M1899.84,280.79c-3.12,0-5.25-0.17-7.34,0.03c-6.84,0.67-11.83,6.4-11.45,12.97c0.34,5.93,4.83,10.38,10.67,10.57
			c6.06,0.2,13.47-5.06,13.26-10.28c-0.13-3.22-2.3-6.35-3.51-9.43c5.94,1.27,9.15,6.32,7.56,12.13
			c-2.01,7.3-11.36,13.18-19.13,12.03c-7.35-1.09-13.42-8.51-13.19-16.12c0.24-8.11,7.41-15.82,15.36-16.44
			C1894.98,276.02,1897.62,276.54,1899.84,280.79z"/>
		<path d="M1036.91,296.83c24.72-5.58,49.38-11.91,74.95-5.02c0.12,0.63,0.23,1.27,0.35,1.9c-1.39,0.51-2.91,1.68-4.15,1.44
			c-22.03-4.26-43.46,0.76-65.02,3.93c-1.93,0.28-3.93,0.04-5.9,0.04C1037.05,298.35,1036.98,297.59,1036.91,296.83z"/>
		<path d="M51.07,1049.05c7.02,14.92,22.04,20.96,33.1,31.58c-11.96-2.86-20.86-10.93-30.7-18.48c-3.69,9.62-0.51,20.15-6.37,28.23
			c-0.68-0.11-1.36-0.22-2.04-0.32c1.41-13.31,2.82-26.62,4.23-39.93C49.89,1049.77,50.48,1049.41,51.07,1049.05z"/>
		<path d="M1408.87,599.94c-11.99,20.65-22.98,39.62-34.07,58.53c-0.42,0.72-1.83,0.86-3.01,1.36
			C1372.29,649.23,1395.94,610.5,1408.87,599.94z"/>
		<path d="M942.29,147.82c2.34-8.5,4.22-17.17,7.14-25.46c3.47-9.85,7.74-19.42,11.9-29.01c1.06-2.45,2.44-5.45,7.3-3.73
			c-12.02,18.29-14.97,39.91-24.24,58.91C943.69,148.29,942.99,148.06,942.29,147.82z"/>
		<path d="M1495.06,305.11c0.6,1.67,1.6,3.3,1.74,5.01c1.26,15.41-1.23,52.85-4.34,58.52c-2.61-21.78,0.28-42.35-0.1-62.94
			C1493.27,305.5,1494.17,305.3,1495.06,305.11z"/>
		<path d="M1671.53,620.9c-12.49-0.97-44.2-25.06-48.51-36.27c1.47,0.82,2.44,1.21,3.25,1.83
			C1640.96,597.61,1655.62,608.78,1671.53,620.9z"/>
		<path d="M1633.93,490.79c10.91-3.55,50.48-1.66,59.11,2.83C1687.8,495.78,1642.05,493.59,1633.93,490.79z"/>
		<path d="M1518.35,687.25c-1.06-19.64-2.12-39.29-3.21-59.43c4.17,3.71,4.82,6.67,5.3,19.06c0.26,6.64,1.24,13.27,1.35,19.91
			c0.12,6.77,1.29,13.67-0.89,20.31C1520.05,687.15,1519.2,687.2,1518.35,687.25z"/>
		<path d="M735.99,145.05c1.98,0.63,4.27,0.82,5.9,1.96c12.74,8.91,25,18.38,34.03,31.22c-0.39,0.45-0.79,0.91-1.18,1.36
			c-13.07-10.87-26.15-21.74-39.22-32.62C735.67,146.33,735.83,145.69,735.99,145.05z"/>
		<path d="M1043.02,400.53c-1.68-0.18-3.24,0.09-4.24-0.53c-6.29-3.9-33.17-33.02-35.63-38.34
			C1008.89,364.03,1039.71,393.82,1043.02,400.53z"/>
		<path d="M1389.7,383.59c-12.38-3.66-36.14-21.88-38.98-29.42c0.85-0.14,1.98-0.68,2.39-0.34
			C1365.21,363.85,1378.51,372.47,1389.7,383.59z"/>
		<path d="M1349.52,490.18c-14.6,2.82-29.24,5.12-45.99,3.39c5.49-5.67,10.85-3.18,15.5-3.85c4.85-0.69,9.73-1.31,14.62-1.57
			c5.17-0.27,10.36-0.06,15.55-0.06C1349.3,488.8,1349.41,489.49,1349.52,490.18z"/>
		<path d="M1025.49,200.27c13.82-10.44,32.94-15.82,44.71-12.2c-4.21,4.61-9.96,1.31-14.4,3.56c-4.86,2.45-10.31,3.73-15.5,5.52
			c-4.8,1.66-9.59,3.32-14.39,4.98C1025.76,201.51,1025.63,200.89,1025.49,200.27z"/>
		<path d="M756.38,264.83c-14.23,6.98-28.25,10.18-41.97,14.2c-0.57,0.17-1.58-1.2-2.51-1.95
			C719.63,271.85,746.77,264.12,756.38,264.83z"/>
		<path d="M857.68,133.76c-6.32-12.85-12.65-25.69-18.87-38.59c-0.22-0.45,0.67-1.43,1.64-3.35c10.76,12.33,14.57,26.84,19.1,41.01
			C858.92,133.14,858.3,133.45,857.68,133.76z"/>
		<path d="M1613.58,399.18c0.75-7.7,10.04-21.44,19.87-30.63c2.13-1.99,4.17-4.12,7.77-2.11
			C1632.18,377.14,1623.24,387.73,1613.58,399.18z"/>
		<path d="M240.57,888.31c-6.64,8.73-12.05,15.85-17.99,23.68C221.1,903.97,229.09,893.52,240.57,888.31z"/>
		<path d="M1071.25,954.19c-4.42,7.65-9.76,14.49-17.4,19.07C1054.9,966.47,1060.36,960.54,1071.25,954.19z"/>
		<path d="M982.73,991.98c-11.37,0.83-17.6-0.84-23.71-6.37C963.95,984.07,977.93,987.82,982.73,991.98z"/>
		<path d="M1030.76,987.76c-7.29,4.53-14.85,7.82-23.41,7.98C1013.74,988.89,1022.25,988.12,1030.76,987.76z"/>
		<path d="M37.41,1168.58c1.21-9.39,7.84-15.07,14.44-20.78C49.47,1156.32,43.7,1162.6,37.41,1168.58z"/>
		<path d="M16.5,1178.44c-7.97,6.06-15.2,9.83-24.9,9.6C-4.81,1183.69,5.3,1179.85,16.5,1178.44z"/>
		<path d="M423.94,868.5c9.79-3.62,17.76-0.99,26.91-0.45C441.27,871.82,432.57,872.1,423.94,868.5z"/>
		<path d="M66.29,1097.91c0.31,8.56-0.46,16.93-2.83,26.77c-1.85-2.3-3.18-3.24-3.05-3.91
			C61.88,1113.05,61.07,1104.72,66.29,1097.91z"/>
		<path d="M553.06,828.02c-2.62,7.93-7.14,12.9-14.76,16.6C539.44,838.67,546.03,831.51,553.06,828.02z"/>
		<path d="M346.08,868.64c5.77-3.95,16.02-3.37,25.06,0.87C363.19,870.2,355.26,870.47,346.08,868.64z"/>
		<path d="M489.14,863.92c6.09-2.57,12.18-5.13,19.38-8.17C504.4,863.77,496.53,867.37,489.14,863.92z"/>
		<path d="M294.18,868.94c-6.03,2.71-12.16,5.26-19.39,4.13C278.26,868.42,283.39,867.21,294.18,868.94z"/>
		<path d="M924.66,969.38c5.68-2.4,9.8-0.24,14.24,4.52C932.55,974.97,928.53,972.54,924.66,969.38z"/>
		<path d="M1984.87,477.64c-13.52,0-26.76,0-40.6,0c1.75-6.78,8.13-9.88,12.22-14.72c4.1-4.86,8.58-9.44,10.08-15.53
			c-2.46-4.46-5.8-3.86-8.4-1.71c-6.47,5.33-13.27,10.51-18.67,16.83c-15.57,18.27-14.95,16.36-34.73,15.67
			c-9.01-0.31-18.03-0.7-27.01-1.45c-6.13-0.51-7.12-1.59-7.19-7.53c-0.17-14.27-0.25-28.54,0.03-42.8
			c0.17-8.7,3.36-11.1,12.22-12.54c12.23-1.99,24.33-0.71,36.54-0.12c15.7,0.76,31.45,0.36,47.18,0.49
			c4.37,0.04,8.74,0.11,13.1,0.35c6.05,0.33,7.46,1.08,7.64,7.05c0.35,11.61,0.1,23.25-0.32,34.85
			C1986.69,463.37,1985.62,470.24,1984.87,477.64z M1980.63,472.47c0.89-18.28,6.56-35.6,1.09-54.33c-3.2,0-6.33,0.02-9.47,0
			c-19.25-0.17-38.5-0.43-57.75-0.51c-9.86-0.05-19.73-0.13-29.56,0.4c-8.69,0.47-10.25,2.44-10.45,11.39
			c-0.24,10.49-0.37,20.99-0.3,31.48c0.03,4.23,0.73,8.45,1.16,13.13c14.91,0,28.9-0.02,42.88,0.01c4.53,0.01,7.54-2.49,10.29-5.69
			c4.57-5.29,8.95-10.79,13.96-15.63c4.35-4.21,9.18-8.07,14.3-11.28c4.65-2.92,9.36-2.07,11.96,0.89
			c2.38,2.71,2.65,8.19-0.18,12.28c-2.96,4.28-6.64,8.07-9.93,12.13c-1.31,1.61-2.44,3.37-4.13,5.74
			C1963.64,472.47,1971.48,472.47,1980.63,472.47z"/>
		<path d="M1046.24,686.31c-1.25-4.17-2.96-8.14-3.54-12.28c-0.56-4.05,1.64-7.05,5.61-8.83c17.46-7.84,34.92-15.7,52.27-23.79
			c6.05-2.82,11.77-6.34,17.67-9.49c3.08-1.64,6.13-3.4,9.38-4.62c1.41-0.53,3.66-0.37,4.87,0.44c5.85,3.94,5.75,15.61-0.13,19.68
			c-2.36,1.64-5.12,2.72-7.71,4.02c-16.86,8.52-33.66,17.15-50.61,25.5C1065.8,681.02,1057.84,686.15,1046.24,686.31z
			 M1129.51,631.95c-27.83,13.39-55.14,26.54-83.14,40.02c0.88,3.48,1.76,6.97,2.82,11.15c7.3-3.12,13.79-5.56,19.98-8.61
			c19-9.37,37.88-18.97,56.8-28.5C1133.24,642.35,1133.73,640.51,1129.51,631.95z"/>
		<path d="M1233.98,998.88c0.08-9.21,3.93-13.13,12.84-13.1c14.77,0.05,24.79,15.62,18.66,28.99c-3.27,7.14-10.55,11.13-18.5,10.15
			c-9-1.11-17.33-7.62-18.74-14.64c-0.97-4.85,0.75-8.25,5.91-11.68c-2.59,13.15,0.46,18.71,11.63,21.56
			c5.41,1.38,10.07-0.14,13.3-4.28c3.24-4.17,5.18-9.02,2.91-14.64C1257.91,991.16,1242.68,984.17,1233.98,998.88z"/>
		<path d="M586.25,1105.14c-2.49-1.72-4.32-2.68-5.76-4.05c-5.86-5.58-5.7-9.55-0.02-15.4c3.62-3.73,6.93-7.78,10.33-11.73
			c6.43-7.48,12.91-14.91,19.2-22.5c4.62-5.57,8.88-11.43,13.49-17.01c2.68-3.24,5.73-6.17,8.81-9.45c2.64,2.37,4.51,3.76,6.02,5.47
			c4.48,5.05,4.68,9.45,0.3,14.79c-8.1,9.87-16.49,19.5-24.64,29.32c-6.48,7.8-12.66,15.86-19.26,23.57
			C592.51,1100.73,589.44,1102.56,586.25,1105.14z M631.95,1031.59c-2.32,2.69-4.26,4.83-6.08,7.05
			c-12.32,15.09-24.6,30.21-36.93,45.29c-0.91,1.11-2.14,1.96-3.19,2.96c-6.01,5.72-5.98,6.55,0.74,13.3
			c1.65-1.55,3.49-2.95,4.93-4.69c14.45-17.46,28.86-34.95,43.21-52.5C638.13,1038.72,637.79,1037.54,631.95,1031.59z"/>
		<path d="M406.7,416.63c0.66,2.25,1.22,3.58,1.42,4.96c1.26,8.47-1.02,11.83-9.26,13.76c-11,2.57-22.02,5.03-32.99,7.69
			c-7.61,1.85-15.14,3.99-22.73,5.93c-1.67,0.43-3.42,0.68-5.15,0.75c-6.25,0.23-8.69-1.88-9.16-7.73
			c-0.41-5.07,2.41-8.38,7.65-9.62c19.72-4.66,39.4-9.49,59.13-14.12C399.16,417.41,402.84,417.18,406.7,416.63z M334.05,446.01
			c3.26-0.55,6.13-0.82,8.88-1.53c7.03-1.8,13.97-3.92,21.01-5.67c11.26-2.8,22.57-5.41,33.87-8.09c6.43-1.53,6.84-2.27,4.6-8.89
			c-1.05,0.07-2.22,0-3.3,0.26c-20.3,4.87-40.56,9.94-60.92,14.57C332.96,437.85,332.29,440.39,334.05,446.01z"/>
		<path d="M1707.73,795.83c3.72,20.68,7.04,39.2,10.61,59.03c-17.16-2.79-33.42-5.8-49.43-11.74c7.69,0.27,10.19-5.26,13.33-10.31
			c6.44-10.39,13.1-20.65,19.77-30.89C1703.06,800.3,1704.68,799.04,1707.73,795.83z M1681.23,843.1
			c11.24,1.47,20.45,4.86,31.32,5.64c-2.51-14.56-4.8-27.81-7.47-43.27C1695.43,818.13,1689.19,830.37,1681.23,843.1z"/>
	</g>
</g>
<linearGradient id="SVGID_3_" gradientUnits="userSpaceOnUse" x1="0" y1="1603" x2="2000" y2="1603">
	<stop  offset="0" style="stop-color:#19242D"/>
	<stop  offset="0.099" style="stop-color:#222E3A"/>
	<stop  offset="0.1926" style="stop-color:#25323E"/>
	<stop  offset="0.2749" style="stop-color:#1D2731"/>
	<stop  offset="0.3966" style="stop-color:#151D25"/>
	<stop  offset="0.5163" style="stop-color:#121A21"/>
	<stop  offset="0.6752" style="stop-color:#151E25"/>
	<stop  offset="0.8215" style="stop-color:#1C2630"/>
	<stop  offset="0.8828" style="stop-color:#19222B"/>
	<stop  offset="0.9548" style="stop-color:#0F161D"/>
	<stop  offset="1" style="stop-color:#060B10"/>
</linearGradient>
<rect y="1206" class="st2" width="2000" height="794"/>
<g>
	<linearGradient id="SVGID_4_" gradientUnits="userSpaceOnUse" x1="161.0383" y1="971.7573" x2="717.2248" y2="650.6429">
		<stop  offset="0" style="stop-color:#19242D"/>
		<stop  offset="0.1983" style="stop-color:#1B252E"/>
		<stop  offset="0.3827" style="stop-color:#1B252E"/>
		<stop  offset="0.5168" style="stop-color:#1B252E"/>
		<stop  offset="0.7067" style="stop-color:#1B252E"/>
		<stop  offset="1" style="stop-color:#121A21"/>
	</linearGradient>
	<path class="st3" d="M307.3,516.35h332.39v134.3H381.84v89.53h239.05v134.3H381.84v89.53h257.86v85.51
		c0,26.95-21.85,48.79-48.79,48.79H234.11V589.54C234.11,549.12,266.88,516.35,307.3,516.35z"/>
	<g>
		<linearGradient id="SVGID_5_" gradientUnits="userSpaceOnUse" x1="191.7556" y1="668.299" x2="709.2921" y2="967.0988">
			<stop  offset="0" style="stop-color:#2E3D4C"/>
			<stop  offset="1" style="stop-color:#030407"/>
		</linearGradient>
		<path class="st4" d="M317.06,524.49h332.39v134.3H391.6v89.53h239.05v134.3H391.6v89.53h257.86v85.51
			c0,26.95-21.85,48.79-48.79,48.79H243.87V597.68C243.87,557.25,276.64,524.49,317.06,524.49z"/>
	</g>
</g>
<g>
	<linearGradient id="SVGID_6_" gradientUnits="userSpaceOnUse" x1="1099.0364" y1="1131.605" x2="724.6017" y2="483.0652">
		<stop  offset="0" style="stop-color:#2E3D4C"/>
		<stop  offset="1" style="stop-color:#030407"/>
	</linearGradient>
	<path class="st5" d="M666.95,516.35H810.2l198.76,317.84V516.35h98.94c26.95,0,48.79,21.85,48.79,48.79v533.17h-143.25
		L814.68,781.37v316.95h-98.94c-26.95,0-48.79-21.85-48.79-48.79V516.35z"/>
	<g>
		<linearGradient id="SVGID_7_" gradientUnits="userSpaceOnUse" x1="673.4518" y1="815.4674" x2="1163.198" y2="815.4674">
			<stop  offset="0" style="stop-color:#2E3D4C"/>
			<stop  offset="1" style="stop-color:#030407"/>
		</linearGradient>
		<path class="st6" d="M673.45,524.49H816.7l198.76,317.84V524.49h98.94c26.95,0,48.79,21.85,48.79,48.79v533.17h-143.25
			L821.18,789.5v316.95h-98.94c-26.95,0-48.79-21.85-48.79-48.79V524.49z"/>
	</g>
</g>
<g id="G_2_">
	<linearGradient id="SVGID_8_" gradientUnits="userSpaceOnUse" x1="1736.083" y1="938.9156" x2="1229.3257" y2="646.3391">
		<stop  offset="0" style="stop-color:#2E3D4C"/>
		<stop  offset="1" style="stop-color:#030407"/>
	</linearGradient>
	<path class="st7" d="M1190.8,792.28c0.62-163.63,132.94-297.67,296.57-296.75c87.94,0.5,160.72,33.73,211.04,88.45
		c13.04,14.18,10.86,36.56-4.59,48.06l-67.93,50.56c-12.62,9.4-30.28,8.69-41.78-2.05c-29.47-27.54-66.24-37.29-98.74-37.29
		c-87.75,0-146.84,62.67-146.84,150.42c0,87.74,59.09,150.41,146.84,150.41c41.19,0,92.22-19.7,108.34-68.94h-117.29V773.37
		c0-17.97,14.56-32.53,32.53-32.53h255.78v66.25c-6.27,165.64-111.03,284.72-279.36,284.72
		C1312.1,1091.81,1190.14,965.79,1190.8,792.28z"/>
	<linearGradient id="SVGID_9_" gradientUnits="userSpaceOnUse" x1="1275.1954" y1="599.5889" x2="1693.8724" y2="1018.266">
		<stop  offset="0" style="stop-color:#19242D"/>
		<stop  offset="2.691866e-03" style="stop-color:#25323E"/>
		<stop  offset="0.3268" style="stop-color:#1C2630"/>
		<stop  offset="0.3771" style="stop-color:#1B252E"/>
		<stop  offset="0.7123" style="stop-color:#121A21"/>
		<stop  offset="1" style="stop-color:#060B10"/>
	</linearGradient>
	<path class="st8" d="M1190.8,806.91c0.62-163.63,132.94-297.67,296.57-296.75c87.94,0.5,160.72,33.73,211.04,88.45
		c13.04,14.18,10.86,36.56-4.59,48.06l-67.93,50.56c-12.62,9.4-30.28,8.69-41.78-2.05c-29.47-27.54-66.24-37.29-98.74-37.29
		c-87.75,0-146.84,62.67-146.84,150.42c0,87.74,59.09,150.41,146.84,150.41c41.19,0,92.22-19.7,108.34-68.94h-117.29V788.01
		c0-17.97,14.56-32.53,32.53-32.53h255.78v66.25c-6.27,165.64-111.03,284.72-279.36,284.72
		C1312.1,1106.45,1190.14,980.43,1190.8,806.91z"/>
	<g>
		<g>
			
				<linearGradient id="SVGID_10_" gradientUnits="userSpaceOnUse" x1="240.0193" y1="1474.5317" x2="226.3419" y2="1387.9077" gradientTransform="matrix(0.9728 -0.2318 0.2318 0.9728 653.6299 -935.9715)">
				<stop  offset="0" style="stop-color:#42566A"/>
				<stop  offset="1" style="stop-color:#1F3748"/>
			</linearGradient>
			<polygon class="st9" points="1371.26,313.1 1368.97,303.45 1057.54,503.86 1058.95,509.76 			"/>
			
				<linearGradient id="SVGID_11_" gradientUnits="userSpaceOnUse" x1="3563.6255" y1="1474.5317" x2="3549.948" y2="1387.9077" gradientTransform="matrix(-0.9728 0.2318 0.2318 0.9728 4681.7178 -1895.6479)">
				<stop  offset="0" style="stop-color:#121A21"/>
				<stop  offset="1" style="stop-color:#04060A"/>
			</linearGradient>
			<polygon class="st10" points="1371.26,313.1 1368.97,303.45 1737.3,341.91 1738.7,347.81 			"/>
			
				<linearGradient id="SVGID_12_" gradientUnits="userSpaceOnUse" x1="245.9368" y1="1444.1792" x2="1260.9968" y2="1725.9874" gradientTransform="matrix(0.9728 -0.2318 0.2318 0.9728 653.6299 -935.9715)">
				<stop  offset="0" style="stop-color:#2E3D4C"/>
				<stop  offset="1" style="stop-color:#030407"/>
			</linearGradient>
			<polygon class="st11" points="1371.26,313.1 1058.95,509.76 1410.49,477.76 1738.7,347.81 			"/>
			
				<linearGradient id="SVGID_13_" gradientUnits="userSpaceOnUse" x1="205.3542" y1="1670.5149" x2="611.8694" y2="1670.5149" gradientTransform="matrix(0.9728 -0.2318 0.2318 0.9728 653.6299 -935.9715)">
				<stop  offset="0" style="stop-color:#121A21"/>
				<stop  offset="1" style="stop-color:#04060A"/>
			</linearGradient>
			<path class="st12" d="M1533.07,535.31c-29.11,5.15-97.99,45.65-97.99,45.65s-79.74-5.1-108.04,3.43
				c-28.31,8.53-86.06,58.87-86.06,58.87c48.88,3.52,205.54-14.31,205.54-14.31s147.87-54.72,189.91-79.91
				C1636.43,549.05,1562.18,530.16,1533.07,535.31z"/>
			
				<linearGradient id="SVGID_14_" gradientUnits="userSpaceOnUse" x1="228.7309" y1="1571.6954" x2="576.8068" y2="1565.6193" gradientTransform="matrix(0.9728 -0.2318 0.2318 0.9728 653.6299 -935.9715)">
				<stop  offset="0" style="stop-color:#19242D"/>
				<stop  offset="0.1926" style="stop-color:#25323E"/>
				<stop  offset="0.5279" style="stop-color:#121A21"/>
				<stop  offset="0.8073" style="stop-color:#1C2630"/>
				<stop  offset="1" style="stop-color:#060B10"/>
			</linearGradient>
			<path class="st13" d="M1551.52,367.43c0,0-38.84-5.72-161.7,23.55c-122.86,29.27-154.95,51.89-154.95,51.89l6.11,200.4
				c52.03-33.81,333.76-100.93,395.45-94.21L1551.52,367.43z"/>
			
				<linearGradient id="SVGID_15_" gradientUnits="userSpaceOnUse" x1="234.6774" y1="1636.6824" x2="574.178" y2="1630.756" gradientTransform="matrix(0.9728 -0.2318 0.2318 0.9728 653.6299 -935.9715)">
				<stop  offset="0" style="stop-color:#C28622"/>
				<stop  offset="0.2841" style="stop-color:#FDCF5E"/>
				<stop  offset="1" style="stop-color:#A96405"/>
			</linearGradient>
			<path class="st14" d="M1239.63,599.12l0.59,19.37c60.29-33.63,316.72-94.72,385.7-91.89l-8.21-17.55
				C1544.75,508.56,1304.55,565.79,1239.63,599.12z"/>
		</g>
		<g>
			
				<linearGradient id="SVGID_16_" gradientUnits="userSpaceOnUse" x1="790.2189" y1="1756.0492" x2="827.6848" y2="1885.3671" gradientTransform="matrix(0.9999 -0.0137 0.0137 0.9999 782.966 -1410.7927)">
				<stop  offset="0" style="stop-color:#A96405"/>
				<stop  offset="0.5281" style="stop-color:#FDCF5E"/>
				<stop  offset="1" style="stop-color:#C28622"/>
			</linearGradient>
			<path class="st15" d="M1644.08,485.93c-10.92-50.98-57.8-159.59-58.08-160.22l0,0c3.37-1.53,7.32-0.01,8.77,3.4
				c10.13,23.87,46.36,110.94,55.89,155.41L1644.08,485.93z"/>
			
				<linearGradient id="SVGID_17_" gradientUnits="userSpaceOnUse" x1="739.5342" y1="1932.7439" x2="721.9876" y2="1821.6154" gradientTransform="matrix(0.9857 -0.1684 0.1684 0.9857 623.5258 -1192.8356)">
				<stop  offset="0" style="stop-color:#FDCF5E"/>
				<stop  offset="1" style="stop-color:#A96405"/>
			</linearGradient>
			<path class="st16" d="M1641.85,499.26l13.04,87.13c0,0,20.21,1.01,42.14-9.56l-37.33-81.68
				C1659.7,495.15,1646.37,493.28,1641.85,499.26z"/>
			<g>
				
					<linearGradient id="SVGID_18_" gradientUnits="userSpaceOnUse" x1="562.1102" y1="1578.1031" x2="593.9959" y2="1580.8168" gradientTransform="matrix(0.9746 -0.224 0.224 0.9746 733.4578 -923.5099)">
					<stop  offset="0" style="stop-color:#A96405"/>
					<stop  offset="0.7159" style="stop-color:#FDCF5E"/>
					<stop  offset="1" style="stop-color:#C28622"/>
				</linearGradient>
				<path class="st17" d="M1645.61,474.72c-10.47,5.19-3.76,24.53-3.76,24.53c3.72,1.06,14.96-1.53,17.85-4.1
					C1659.7,495.15,1657.29,474.82,1645.61,474.72z"/>
			</g>
		</g>
	</g>
</g>
<text transform="matrix(1 0 0 1 191.6145 1706.4893)" class="st18 st19 st20 st21">EXPERT</text>
</svg>
